<?xml version="1.0" encoding="utf-8"?>
<!-- Generator: Adobe Illustrator 26.2.1, SVG Export Plug-In . SVG Version: 6.00 Build 0)  -->
<svg version="1.1" id="Layer_1" xmlns="http://www.w3.org/2000/svg" xmlns:xlink="http://www.w3.org/1999/xlink" x="0px" y="0px"
	 width="1000px" height="500px" viewBox="0 0 189.5 42.5" style="enable-background:new 0 0 189.5 42.5;" xml:space="preserve">
<style type="text/css">
	.st0{fill-rule:evenodd;clip-rule:evenodd;}
</style>
<polygon class="st0" points="53,0 64.7,0 54.3,41.7 42.5,41.7 53,0 "/>
<path class="st0" d="M70.3,0.5H82l-2.5,9.6h5l-1.8,7.1h-5l-3.6,15.1c-0.5,1.7,0.4,2.5,2.3,2.4h2l-1.8,7c-2.4,0.2-4.6,0.4-6.7,0.4
	c-3.6,0-6-0.5-7.4-1.4s-1.7-3.2-0.7-6.5L70.3,0.5z"/>
<polygon class="st0" points="88.8,10.1 100.6,10.1 92.7,41.7 81,41.7 88.8,10.1 "/>
<path class="st0" d="M105.9,10.1h11.9L112.6,31c-0.7,2.5,0.1,3.8,2.2,3.8c2.4,0,3.8-1.3,4.5-3.8l5.2-20.9h11.8l-8,31.6h-11.7l1-3.8
	h-0.1c-2.4,3.1-6.1,4.8-10,4.6c-2.2,0.1-4.5-0.5-6.3-1.8c-1.5-1.2-1.9-3.5-1.2-6.8L105.9,10.1L105.9,10.1z"/>
<path class="st0" d="M188.1,11c-1.9-1.3-4.2-1.9-6.5-1.8c-1.9,0-3.7,0.4-5.5,1.1c-2,0.8-3.7,2.1-5,3.8c-0.2-1.5-1-2.8-2.2-3.7
	c-1.7-0.9-3.6-1.3-5.6-1.2c-3.9-0.1-7.7,1.6-10.1,4.8h-0.1l0.9-3.8h-11.9l-8,31.6h11.8l5.2-20.9c0.7-2.5,2.1-3.8,4.4-3.7
	c2.3-0.1,3.1,1.2,2.4,3.7l-5.2,20.9h11.8l5.2-20.9c0.7-2.5,2.1-3.8,4.5-3.7c2.3-0.1,3.1,1.2,2.4,3.7l-5.2,20.9h5.2
	c3.7,0,7.2-2.5,7.9-5.8l4.6-18C189.8,14.6,189.4,12.4,188.1,11L188.1,11z"/>
<path class="st0" d="M40,41.7L38.5,0h-7c-5.7,0.2-10.8,3.3-13.5,8.3L0,41.7l13.5-0.1l3.2-7.1h10.1l-0.4,7.2H40z M20.2,26.5l8.1-17.3
	l-1,17.3H20.2z"/>
</svg>
