<?xml version="1.0" encoding="UTF-8"?>
<!-- Generator: Adobe Illustrator 25.4.0, SVG Export Plug-In . SVG Version: 6.00 Build 0)  -->
<svg version="1.1" id="Layer_1" xmlns="http://www.w3.org/2000/svg" xmlns:xlink="http://www.w3.org/1999/xlink" x="0px" y="0px" width="1000px" height="1000px" viewBox="0 0 1080 1080" style="enable-background:new 0 0 1080 1080;" xml:space="preserve">
<style type="text/css">
	.st0{clip-path:url(#SVGID_00000183248276639277731450000014824802269306632609_);}
	.st1{clip-path:url(#SVGID_00000010270762718974055990000000954664237940242588_);}
	.st2{fill:#AD2227;}
	.st3{fill:#FFFFFF;}
</style>
<g>
	<defs>
		<rect id="SVGID_1_" x="73.04" y="0" width="933.62" height="1093"/>
	</defs>
	<clipPath id="SVGID_00000090284082801027188310000010354727476886921131_">
		<use xlink:href="#SVGID_1_" style="overflow:visible;"/>
	</clipPath>
	<g style="clip-path:url(#SVGID_00000090284082801027188310000010354727476886921131_);">
		<g>
			<defs>
				<rect id="SVGID_00000069391507121334959700000002181203186618436490_" x="73.04" y="1" width="933.62" height="1093"/>
			</defs>
			<clipPath id="SVGID_00000168818485047805106540000016928370367289262271_">
				<use xlink:href="#SVGID_00000069391507121334959700000002181203186618436490_" style="overflow:visible;"/>
			</clipPath>
			<g style="clip-path:url(#SVGID_00000168818485047805106540000016928370367289262271_);">
				<path class="st2" d="M543.79,923.33c1.84-7.75,3.74-14.89,5.22-22.11c4.22-20.65,5.75-41.58,6.11-62.6      c0.38-22.52,0.72-45.04,0.92-67.56c0.26-28.82,0.46-57.63,0.46-86.45c0-8.47,1.75-15.82,8.49-21.63      c3.52-3.03,3.04-5.37-0.77-8.03c-2.89-2.02-5.84-3.94-8.68-6.03c-2.78-2.06-2.82-4.04,0.08-5.94c5.05-3.3,10.28-6.33,15.38-9.56      c1.69-1.07,3.4-2.22,4.76-3.66c4.35-4.61,4.17-7.33-0.5-11.39c-11.67-10.16-23.34-20.31-35.28-30.69      c-1.78,1.51-3.5,2.93-5.18,4.39c-10.63,9.25-21.2,18.58-31.93,27.71c-2.28,1.94-2.82,3.91-1.27,6.12      c1.69,2.41,3.57,4.93,5.93,6.59c5.23,3.69,10.85,6.83,16.26,10.28c3.34,2.13,3.39,4.03,0.22,6.34c-3.05,2.22-6.08,4.5-9.31,6.43      c-2.86,1.71-2.48,3.68-1.15,6c0.19,0.32,0.4,0.67,0.68,0.9c8.42,6.6,9.18,15.73,9.1,25.52c-0.2,25.42-0.15,50.85,0.13,76.28      c0.3,27.8,0.72,55.6,1.52,83.39c0.72,25.07,3.53,49.89,10.9,74.01c0.1,0.33,0.01,0.73,0.01,1.66      c-8.06-6.01-15.86-11.71-23.52-17.57C460.61,866.16,411.28,823.8,365.6,777.3c-34.72-35.35-67.17-72.59-93.59-114.72      c-10.17-16.22-19.2-33.04-25.96-51c-0.73-1.95-1.18-4.13-1.18-6.2c-0.06-71.5-0.03-143-0.12-214.5c0-3.39,0.79-4.48,4.36-4.47      c79.19,0.1,158.37,0.07,237.56,0.12c1.69,0,3.6,0.25,5.03,1.05c14.36,8.07,28.65,16.29,42.95,24.47      c0.42,0.24,0.77,0.6,1.01,0.78c-7.78,10.49-15.65,20.79-23.14,31.35c-2.58,3.63-4.64,7.77-6.17,11.96      c-1.57,4.3,0.15,7.75,4.44,9.49c2.96,1.2,6.29,2.04,9.47,2.09c13.09,0.23,26.19,0.26,39.27-0.01c3.41-0.07,6.97-1.08,10.15-2.4      c3.63-1.51,5.21-5.05,3.98-8.77c-1.16-3.53-2.7-7.11-4.83-10.12c-8-11.29-16.31-22.35-24.69-33.76      c2.94-1.69,6.06-3.49,9.19-5.27c11.25-6.43,22.46-12.92,33.78-19.23c1.77-0.98,3.99-1.61,6.01-1.61      c79.19-0.08,158.37-0.05,237.56-0.14c3.48,0,4.42,0.94,4.42,4.42c-0.1,71.5-0.06,143-0.15,214.5c0,2.55-0.72,5.22-1.66,7.62      c-10.38,26.39-24.95,50.44-41.37,73.42c-28.05,39.25-60.58,74.58-95.06,108.19c-43.5,42.4-89.87,81.44-138.39,117.95      C553.73,916.06,548.95,919.52,543.79,923.33z M265.11,599.14c3.71,5.86,7.62,10.64,13.18,13.59c2.57,1.36,5.68,2.36,8.56,2.37      c49.6,0.14,99.2,0.22,148.8,0.03c16.94-0.06,32.95-4.32,47.06-13.95c13.51-9.22,26.58-19.06,39.95-28.48      c4.75-3.34,7-7.65,6.97-13.39c-0.06-13.34,0.03-26.69-0.04-40.03c-0.06-12.11-5.03-21.88-14.49-29.37      c-9.83-7.79-21.38-11.52-33.47-13.83c-68.62-13.1-137.25-26.14-205.88-39.19c-3.33-0.63-6.69-1.15-10.74-1.84      c4.26,11.06,9.24,20.03,19.75,25.2c33.16,16.32,66.2,32.9,99.21,49.53c14.67,7.39,30.18,10.91,46.53,11      c19.76,0.1,39.53,0.1,59.29,0.2c2.51,0.01,5.08,0.09,7.49,0.68c1.6,0.39,2.96,1.76,4.42,2.7c-0.17,0.39-0.35,0.79-0.52,1.18      C422.69,550,344.2,574.48,265.11,599.14z M814.66,435.44c-1.35,0-2.22-0.13-3.04,0.02c-25.19,4.77-50.37,9.55-75.55,14.35      c-43.2,8.23-86.39,16.48-129.59,24.67c-11.5,2.18-23.01,4.31-33.45,9.96c-13.23,7.16-22.23,17.46-22.68,33.16      c-0.41,14.34-0.15,28.7-0.1,43.05c0.02,4.7,2.01,8.47,5.86,11.25c12.24,8.84,24.43,17.75,36.7,26.55      c16.07,11.54,34.13,16.75,53.82,16.75c47.96-0.02,95.93-0.14,143.89,0.09c11.85,0.06,17.91-7.33,24.27-16.12      c-79.15-24.68-157.73-49.19-236.3-73.69c-0.13-0.44-0.27-0.88-0.4-1.32c1.53-0.88,2.98-2.16,4.63-2.55      c2.42-0.56,4.99-0.64,7.5-0.65c17.5-0.05,35-0.2,52.5,0.02c20.65,0.26,39.95-4.15,58.42-13.73      c31.47-16.33,63.33-31.88,95.08-47.68C806.29,454.57,810.72,445.51,814.66,435.44z"/>
				<path class="st2" d="M834.99,163.76c0,1.63,0,2.99,0,4.36c0,63.95-0.03,127.9,0.08,191.85c0.01,3.7-0.75,4.89-4.73,4.89      c-193.62-0.11-387.24-0.1-580.86-0.03c-3.45,0-4.77-0.62-4.76-4.46c0.12-64.2,0.09-128.4,0.09-192.6c0-1.24,0-2.48,0-4      C441.57,163.76,638,163.76,834.99,163.76z M332.96,223.83c-7.41,7.4-14.06,14.19-20.89,20.8c-4.25,4.11-6.24,9-6.24,14.83      c0.01,21.14,0.06,42.28-0.06,63.41c-0.02,3.17,0.95,4.02,4.06,4c22.4-0.12,44.79-0.05,67.19-0.07      c11.91-0.01,22.1-4.46,30.58-12.61c6.13-5.88,9.6-13.11,9.31-21.87c-0.15-4.65,0.29-9.34-0.15-13.95      c-0.26-2.69-1.08-5.84-2.79-7.77c-3.76-4.24-8.25-7.84-12.47-11.73c1.16-0.95,2.63-2.11,4.04-3.34      c6.1-5.29,10.77-11.2,9.3-20.08c-0.4-2.45-0.04-5.02-0.08-7.54c-0.08-6.12-2.04-11.62-5.85-16.38      c-8.25-10.31-19.2-15.16-32.25-15.2c-29.19-0.09-58.38-0.03-87.58-0.02c-1.05,0-2.1,0.17-3.71,0.32      c4.27,6.73,8.36,12.89,12.15,19.22c3.37,5.64,8.05,8.27,14.65,8.03C318.78,223.64,325.39,223.83,332.96,223.83z M542.95,196.3      c-2,0-3.48,0-4.96,0c-24.17,0-48.34,0.34-72.5-0.2c-7.65-0.17-13.09,2.19-18.14,7.56c-3.85,4.1-5.89,8.36-5.87,14.09      c0.15,34.74,0.08,69.47,0.08,104.21c0,1.47,0,2.95,0,4.58c33.94,0,67.46,0,101.4,0c0-8.03-0.15-15.81,0.07-23.58      c0.09-3.14-1.08-3.75-3.92-3.73c-19.26,0.1-38.52,0.05-57.77,0.05c-1.47,0-2.94,0-4.59,0c0-8.43,0-16.42,0-24.91      c19.09,0,38.01,0,57.01,0c0-8.5,0-16.5,0-25c-19.12,0-38.04,0-56.95,0c0-8.75,0-16.99,0-25.55c2.61,0,4.98,0,7.35,0      c18.38,0,36.75,0.01,55.13-0.02c1.65,0,3.71,0.6,3.69-2.32C542.92,213.32,542.95,205.16,542.95,196.3z M603.97,196.3      c-4.48,0-8.53,0.41-12.46-0.09c-6.35-0.81-11.25,1.32-15.29,6.02c-0.41,0.48-0.86,0.92-1.34,1.33      c-4.55,3.85-6.23,8.76-6.21,14.7c0.12,34.48,0.06,68.96,0.06,103.43c0,1.59,0,3.18,0,4.88c33.39,0,66.18,0,99.47,0      c0-8-0.12-15.77,0.06-23.54c0.07-3.01-0.93-3.83-3.88-3.81c-18.5,0.12-37,0.06-55.5,0.06c-1.47,0-2.95,0-4.91,0      C603.97,264.82,603.97,230.79,603.97,196.3z M692.46,326.57c33.32,0,66.09,0,99.06,0c0-9.1,0-17.96,0-27.23      c-21.31,0-42.39,0-64.04,0c0-34.53,0-68.66,0-103.04c-4.34,0-8.17,0.44-11.85-0.1c-7-1.02-11.83,2.05-16.56,6.72      c-4.62,4.56-6.73,9.51-6.7,16.05c0.2,34.23,0.09,68.45,0.09,102.68C692.46,323.15,692.46,324.64,692.46,326.57z M811.57,179.63      c0.99,2.33,1.6,4.24,2.57,5.93c0.79,1.37,2.02,2.49,3.06,3.72c0.95-1.18,2.07-2.25,2.79-3.55c1.02-1.83,1.75-3.82,3.03-6.68      c0.76,9.71,0.76,9.71,3.1,10.01c0-5.62,0-11.22,0-16.8c-2.54-1.03-3.86-0.23-4.72,2.16c-1.19,3.29-2.67,6.47-4.34,10.42      c-1.66-4.08-3.04-7.17-4.17-10.36c-0.91-2.56-2.29-3.38-4.72-2.12c0,5.66,0,11.15,0,16.65c0.47,0.13,0.94,0.26,1.41,0.39      C812.61,187.17,809.98,183.11,811.57,179.63z M800.41,175.3c1.41-0.14,2.43-0.09,3.34-0.38c0.78-0.25,1.44-0.89,2.15-1.36      c-0.76-0.59-1.48-1.64-2.27-1.68c-3.38-0.19-6.78-0.16-10.16,0c-0.71,0.03-1.38,0.97-2.07,1.49c0.65,0.53,1.22,1.29,1.96,1.53      c1.01,0.33,2.14,0.25,3.52,0.37c0,2.57-0.28,4.86,0.08,7.05c0.38,2.32-1.69,6.54,1.6,6.6c3.61,0.07,1.36-4.15,1.76-6.42      C800.72,180.23,800.41,177.83,800.41,175.3z"/>
				<path class="st3" d="M265.11,599.14c79.09-24.66,157.58-49.14,236.08-73.62c0.17-0.39,0.35-0.79,0.52-1.18      c-1.47-0.93-2.83-2.3-4.42-2.7c-2.41-0.59-4.98-0.67-7.49-0.68c-19.76-0.1-39.53-0.1-59.29-0.2c-16.35-0.08-31.86-3.61-46.53-11      c-33.01-16.63-66.05-33.21-99.21-49.53c-10.51-5.17-15.49-14.14-19.75-25.2c4.06,0.69,7.41,1.21,10.74,1.84      c68.63,13.05,137.26,26.1,205.88,39.19c12.09,2.31,23.64,6.03,33.47,13.83c9.45,7.5,14.42,17.26,14.49,29.37      c0.07,13.34-0.03,26.69,0.04,40.03c0.03,5.74-2.22,10.05-6.97,13.39c-13.37,9.41-26.45,19.26-39.95,28.48      c-14.11,9.63-30.13,13.89-47.06,13.95c-49.6,0.19-99.2,0.11-148.8-0.03c-2.87-0.01-5.99-1.01-8.56-2.37      C272.73,609.78,268.81,605.01,265.11,599.14z"/>
				<path class="st3" d="M814.66,435.44c-3.93,10.06-8.37,19.13-18.44,24.14c-31.74,15.79-63.61,31.35-95.08,47.68      c-18.47,9.59-37.77,13.99-58.42,13.73c-17.5-0.22-35-0.07-52.5-0.02c-2.51,0.01-5.08,0.08-7.5,0.65      c-1.65,0.38-3.09,1.67-4.63,2.55c0.13,0.44,0.27,0.88,0.4,1.32c78.57,24.5,157.15,49,236.3,73.69      c-6.36,8.8-12.42,16.18-24.27,16.12c-47.96-0.23-95.93-0.11-143.89-0.09c-19.69,0.01-37.75-5.21-53.82-16.75      c-12.27-8.8-24.46-17.71-36.7-26.55c-3.85-2.78-5.85-6.55-5.86-11.25c-0.05-14.35-0.31-28.71,0.1-43.05      c0.45-15.71,9.45-26,22.68-33.16c10.45-5.66,21.95-7.78,33.45-9.96c43.2-8.19,86.39-16.45,129.59-24.67      c25.18-4.8,50.36-9.58,75.55-14.35C812.44,435.31,813.31,435.44,814.66,435.44z"/>
				<path class="st3" d="M332.96,223.83c-7.57,0-14.19-0.18-20.79,0.05c-6.6,0.24-11.28-2.39-14.65-8.03      c-3.78-6.34-7.87-12.49-12.15-19.22c1.62-0.14,2.67-0.32,3.71-0.32c29.19-0.01,58.38-0.07,87.58,0.02      c13.05,0.04,24,4.89,32.25,15.2c3.81,4.76,5.77,10.25,5.85,16.38c0.03,2.52-0.33,5.09,0.08,7.54c1.47,8.88-3.2,14.79-9.3,20.08      c-1.41,1.23-2.88,2.39-4.04,3.34c4.22,3.89,8.71,7.49,12.47,11.73c1.71,1.93,2.53,5.08,2.79,7.77c0.44,4.61,0,9.3,0.15,13.95      c0.29,8.77-3.18,15.99-9.31,21.87c-8.48,8.15-18.67,12.6-30.58,12.61c-22.4,0.02-44.79-0.05-67.19,0.07      c-3.11,0.02-4.08-0.84-4.06-4c0.13-21.14,0.07-42.27,0.06-63.41c0-5.83,1.99-10.72,6.24-14.83      C318.9,238.02,325.55,231.22,332.96,223.83z M343.11,272.88c0,8.58,0,17.4,0,26.4c1.46,0,2.58,0,3.71,0      c7.54-0.02,15.11,0.25,22.62-0.2c3.26-0.19,6.54-1.59,9.61-2.93c7.3-3.18,8.47-16.44,0.33-20.46c-2.23-1.1-4.59-2.61-6.93-2.69      C362.7,272.71,352.95,272.88,343.11,272.88z M342.93,249.25c9.29,0,18.35,0.56,27.27-0.27c3.7-0.34,7.29-3.42,10.59-5.73      c1.14-0.8,1.7-3.03,1.77-4.64c0.33-6.95-1.63-9.79-8.34-12.47c-10.17-4.07-20.74-1.65-31.3-2.33      C342.93,232.49,342.93,240.63,342.93,249.25z"/>
				<path class="st3" d="M542.95,196.3c0,8.86-0.04,17.02,0.02,25.19c0.02,2.92-2.04,2.32-3.69,2.32      c-18.38,0.02-36.75,0.02-55.13,0.02c-2.37,0-4.74,0-7.35,0c0,8.55,0,16.79,0,25.55c18.91,0,37.83,0,56.95,0c0,8.5,0,16.5,0,25      c-19,0-37.91,0-57.01,0c0,8.49,0,16.48,0,24.91c1.65,0,3.12,0,4.59,0c19.26,0,38.52,0.05,57.77-0.05      c2.84-0.02,4.01,0.6,3.92,3.73c-0.22,7.77-0.07,15.54-0.07,23.58c-33.94,0-67.45,0-101.4,0c0-1.63,0-3.11,0-4.58      c0-34.74,0.08-69.47-0.08-104.21c-0.02-5.73,2.01-9.98,5.87-14.09c5.04-5.37,10.48-7.73,18.14-7.56      c24.15,0.53,48.33,0.2,72.5,0.2C539.47,196.3,540.95,196.3,542.95,196.3z"/>
				<path class="st3" d="M603.97,196.3c0,34.49,0,68.52,0,102.98c1.97,0,3.44,0,4.91,0c18.5,0,37,0.06,55.5-0.06      c2.95-0.02,3.95,0.8,3.88,3.81c-0.18,7.76-0.06,15.53-0.06,23.54c-33.29,0-66.08,0-99.47,0c0-1.71,0-3.3,0-4.88      c0-34.48,0.06-68.96-0.06-103.43c-0.02-5.94,1.65-10.84,6.21-14.7c0.48-0.41,0.93-0.85,1.34-1.33c4.04-4.7,8.94-6.83,15.29-6.02      C595.45,196.71,599.49,196.3,603.97,196.3z"/>
				<path class="st3" d="M692.46,326.57c0-1.93,0-3.42,0-4.91c0-34.23,0.1-68.46-0.09-102.68c-0.04-6.54,2.07-11.49,6.7-16.05      c4.73-4.67,9.56-7.74,16.56-6.72c3.68,0.54,7.51,0.1,11.85,0.1c0,34.38,0,68.5,0,103.04c21.65,0,42.73,0,64.04,0      c0,9.27,0,18.13,0,27.23C758.55,326.57,725.78,326.57,692.46,326.57z"/>
				<path class="st3" d="M811.57,179.63c-1.59,3.48,1.04,7.54-1.99,9.77c-0.47-0.13-0.94-0.26-1.41-0.39c0-5.5,0-10.99,0-16.65      c2.43-1.27,3.81-0.44,4.72,2.12c1.13,3.19,2.52,6.28,4.17,10.36c1.66-3.95,3.15-7.13,4.34-10.42c0.86-2.39,2.18-3.18,4.72-2.16      c0,5.58,0,11.18,0,16.8c-2.33-0.3-2.33-0.3-3.1-10.01c-1.27,2.86-2,4.85-3.03,6.68c-0.73,1.3-1.85,2.37-2.79,3.55      c-1.04-1.23-2.27-2.35-3.06-3.72C813.17,183.86,812.55,181.96,811.57,179.63z"/>
				<path class="st3" d="M800.41,175.3c0,2.52,0.32,4.93-0.09,7.21c-0.4,2.27,1.85,6.48-1.76,6.42c-3.29-0.06-1.22-4.27-1.6-6.6      c-0.36-2.19-0.08-4.48-0.08-7.05c-1.38-0.12-2.51-0.05-3.52-0.37c-0.74-0.24-1.31-1-1.96-1.53c0.69-0.52,1.36-1.46,2.07-1.49      c3.38-0.16,6.78-0.18,10.16,0c0.78,0.04,1.51,1.09,2.27,1.68c-0.71,0.47-1.37,1.11-2.15,1.36      C802.83,175.21,801.81,175.16,800.41,175.3z"/>
				<path class="st2" d="M343.11,272.88c9.84,0,19.6-0.18,29.34,0.13c2.34,0.07,4.7,1.58,6.93,2.69c8.14,4.02,6.97,17.28-0.33,20.46      c-3.06,1.33-6.35,2.74-9.61,2.93c-7.52,0.45-15.08,0.18-22.62,0.2c-1.13,0-2.25,0-3.71,0      C343.11,290.28,343.11,281.47,343.11,272.88z"/>
				<path class="st2" d="M342.93,249.25c0-8.62,0-16.75,0-25.45c10.57,0.67,21.13-1.74,31.3,2.33c6.71,2.69,8.67,5.52,8.34,12.47      c-0.08,1.61-0.63,3.84-1.77,4.64c-3.3,2.31-6.89,5.39-10.59,5.73C361.28,249.81,352.22,249.25,342.93,249.25z"/>
			</g>
		</g>
	</g>
</g>
</svg>