<?xml version="1.0" encoding="UTF-8"?>
<!-- Generator: Adobe Illustrator 15.0.2, SVG Export Plug-In . SVG Version: 6.00 Build 0)  -->
<!DOCTYPE svg PUBLIC "-//W3C//DTD SVG 1.1//EN" "http://www.w3.org/Graphics/SVG/1.1/DTD/svg11.dtd">
<svg version="1.1" id="Layer_1" xmlns="http://www.w3.org/2000/svg" xmlns:xlink="http://www.w3.org/1999/xlink" x="0px" y="0px" width="300px" height="108px" viewBox="0 0 300 108" enable-background="new 0 0 510 108" xml:space="preserve">
<g>
	<!-- <path fill="#1E275A" d="M359.778,41.815c0,1.689-0.291,3.259-0.874,4.713c-0.583,1.453-1.402,2.717-2.46,3.791
		c-1.059,1.074-2.332,1.916-3.823,2.525s-3.145,0.913-4.962,0.913c-1.816,0-3.473-0.304-4.969-0.913s-2.775-1.451-3.84-2.525
		c-1.062-1.074-1.885-2.338-2.468-3.791c-0.583-1.454-0.873-3.024-0.873-4.713s0.29-3.259,0.873-4.712
		c0.583-1.453,1.405-2.715,2.468-3.783c1.064-1.069,2.344-1.908,3.84-2.517s3.152-0.914,4.969-0.914
		c1.817,0,3.471,0.308,4.962,0.922c1.491,0.615,2.765,1.456,3.823,2.524c1.058,1.07,1.877,2.33,2.46,3.783
		C359.487,38.572,359.778,40.137,359.778,41.815 M354.232,41.815c0-1.154-0.15-2.193-0.45-3.117
		c-0.299-0.924-0.729-1.708-1.289-2.349c-0.562-0.641-1.248-1.133-2.061-1.475c-0.812-0.342-1.736-0.512-2.773-0.512
		c-1.047,0-1.979,0.17-2.797,0.512c-0.817,0.342-1.506,0.834-2.067,1.475c-0.562,0.641-0.991,1.425-1.29,2.349
		c-0.3,0.924-0.449,1.963-0.449,3.117c0,1.165,0.149,2.21,0.449,3.133c0.299,0.925,0.729,1.708,1.29,2.349s1.25,1.13,2.067,1.467
		s1.75,0.505,2.797,0.505c1.037,0,1.961-0.168,2.773-0.505s1.499-0.826,2.061-1.467c0.561-0.641,0.99-1.424,1.289-2.349
		C354.082,44.025,354.232,42.98,354.232,41.815z"/> -->
	<!-- <path fill="#1E275A" d="M362.374,53.5V36.878h3.078c0.311,0,0.569,0.07,0.777,0.208c0.208,0.14,0.355,0.348,0.441,0.626
		l0.288,0.962c0.321-0.3,0.651-0.578,0.994-0.834c0.342-0.257,0.708-0.474,1.097-0.649c0.391-0.177,0.813-0.315,1.268-0.417
		c0.453-0.102,0.948-0.153,1.482-0.153c0.908,0,1.713,0.159,2.412,0.473c0.7,0.315,1.291,0.754,1.771,1.315s0.844,1.229,1.09,2.003
		c0.246,0.776,0.369,1.618,0.369,2.525V53.5h-4.969V42.937c0-0.812-0.188-1.445-0.562-1.9c-0.374-0.454-0.925-0.681-1.65-0.681
		c-0.547,0-1.058,0.118-1.54,0.353c-0.479,0.236-0.939,0.551-1.378,0.946V53.5H362.374"/>
	<path fill="#1E275A" d="M396.356,53.5h-4.521l-6.444-16.622h4.136c0.354,0,0.649,0.083,0.89,0.249
		c0.241,0.165,0.403,0.371,0.489,0.617l2.308,7.453c0.182,0.609,0.355,1.203,0.521,1.78c0.165,0.577,0.307,1.154,0.425,1.731
		c0.118-0.577,0.263-1.154,0.433-1.731c0.171-0.577,0.354-1.171,0.545-1.78l2.404-7.453c0.086-0.246,0.246-0.452,0.481-0.617
		c0.233-0.166,0.513-0.249,0.833-0.249h3.943L396.356,53.5"/>
	<path fill="#1E275A" d="M411.648,36.621c1.261,0,2.409,0.199,3.446,0.594s1.926,0.962,2.67,1.699
		c0.742,0.738,1.318,1.633,1.73,2.685c0.411,1.053,0.617,2.236,0.617,3.551c0,1.324-0.206,2.519-0.617,3.582
		c-0.412,1.064-0.988,1.966-1.73,2.709c-0.744,0.742-1.633,1.314-2.67,1.715s-2.186,0.601-3.446,0.601
		c-1.271,0-2.429-0.2-3.47-0.601c-1.042-0.401-1.939-0.973-2.693-1.715c-0.754-0.743-1.336-1.645-1.748-2.709
		c-0.411-1.063-0.617-2.258-0.617-3.582c0-1.315,0.206-2.498,0.617-3.551c0.412-1.052,0.994-1.947,1.748-2.685
		c0.754-0.737,1.651-1.304,2.693-1.699C409.219,36.82,410.376,36.621,411.648,36.621 M411.648,50.071
		c1.144,0,1.985-0.404,2.524-1.211c0.54-0.806,0.81-2.033,0.81-3.679s-0.27-2.869-0.81-3.671c-0.539-0.801-1.381-1.202-2.524-1.202
		c-1.176,0-2.035,0.401-2.581,1.202c-0.545,0.802-0.817,2.025-0.817,3.671s0.272,2.873,0.817,3.679
		C409.613,49.667,410.472,50.071,411.648,50.071z"/>
	<path fill="#1E275A" d="M428.542,32.325c0,0.396-0.079,0.768-0.24,1.115c-0.16,0.347-0.38,0.652-0.657,0.913
		c-0.277,0.262-0.601,0.47-0.97,0.626c-0.368,0.155-0.762,0.232-1.178,0.232c-0.407,0-0.786-0.077-1.139-0.232
		c-0.353-0.156-0.665-0.364-0.937-0.626c-0.273-0.261-0.487-0.566-0.643-0.913c-0.155-0.347-0.232-0.719-0.232-1.115
		c0-0.406,0.077-0.785,0.232-1.138c0.155-0.352,0.369-0.662,0.643-0.929c0.271-0.268,0.584-0.476,0.937-0.625
		c0.353-0.15,0.731-0.225,1.139-0.225c0.416,0,0.81,0.075,1.178,0.225c0.369,0.149,0.692,0.357,0.97,0.625
		c0.277,0.267,0.497,0.577,0.657,0.929C428.463,31.54,428.542,31.919,428.542,32.325 M422.997,36.878h4.969V53.5h-4.969V36.878z"/>
	<path fill="#1E275A" d="M437.808,53.757c-0.792,0-1.489-0.115-2.093-0.345c-0.604-0.229-1.111-0.555-1.522-0.977
		c-0.411-0.422-0.724-0.932-0.938-1.531c-0.214-0.599-0.32-1.267-0.32-2.004v-8.592h-1.41c-0.257,0-0.477-0.082-0.658-0.248
		c-0.182-0.165-0.271-0.408-0.271-0.729v-1.94l2.645-0.512l0.979-2.61c0.127-0.513,0.49-0.769,1.089-0.769h2.597v3.411h4.04v3.398
		h-4.04v8.256c0,0.384,0.094,0.702,0.281,0.954c0.187,0.251,0.456,0.376,0.809,0.376c0.182,0,0.335-0.018,0.457-0.056
		c0.123-0.037,0.23-0.08,0.321-0.128c0.091-0.049,0.176-0.091,0.257-0.128c0.08-0.038,0.173-0.056,0.28-0.056
		c0.149,0,0.27,0.035,0.36,0.103c0.091,0.07,0.185,0.18,0.281,0.329l1.507,2.357c-0.642,0.48-1.363,0.841-2.164,1.082
		C439.491,53.637,438.662,53.757,437.808,53.757"/> -->
	<!-- <rect x="451.143" y="29.505" fill="#1E275A" width="4.97" height="23.996"/>
	<path fill="#1E275A" d="M467.525,36.621c1.261,0,2.41,0.199,3.446,0.594c1.037,0.396,1.926,0.962,2.67,1.699
		c0.742,0.738,1.318,1.633,1.73,2.685c0.411,1.053,0.617,2.236,0.617,3.551c0,1.324-0.206,2.519-0.617,3.582
		c-0.412,1.064-0.988,1.966-1.73,2.709c-0.744,0.742-1.633,1.314-2.67,1.715c-1.036,0.401-2.186,0.601-3.446,0.601
		c-1.271,0-2.429-0.2-3.47-0.601c-1.042-0.401-1.939-0.973-2.693-1.715c-0.753-0.743-1.336-1.645-1.747-2.709
		c-0.412-1.063-0.618-2.258-0.618-3.582c0-1.315,0.206-2.498,0.618-3.551c0.411-1.052,0.994-1.947,1.747-2.685
		c0.754-0.737,1.651-1.303,2.693-1.699C465.096,36.82,466.253,36.621,467.525,36.621 M467.525,50.071
		c1.144,0,1.985-0.404,2.524-1.211c0.539-0.806,0.81-2.033,0.81-3.679s-0.271-2.869-0.81-3.67c-0.539-0.802-1.381-1.203-2.524-1.203
		c-1.176,0-2.035,0.401-2.581,1.203c-0.545,0.801-0.816,2.024-0.816,3.67s0.271,2.873,0.816,3.679
		C465.49,49.667,466.349,50.071,467.525,50.071z"/>
	<path fill="#1E275A" d="M484.419,32.325c0,0.396-0.08,0.768-0.24,1.115c-0.16,0.347-0.38,0.652-0.657,0.913
		c-0.277,0.262-0.601,0.471-0.97,0.626c-0.368,0.155-0.762,0.232-1.178,0.232c-0.407,0-0.786-0.077-1.139-0.232
		c-0.353-0.155-0.665-0.364-0.938-0.626c-0.271-0.261-0.485-0.566-0.64-0.913c-0.155-0.347-0.233-0.719-0.233-1.115
		c0-0.405,0.078-0.785,0.233-1.137c0.154-0.353,0.368-0.663,0.64-0.93c0.273-0.267,0.586-0.476,0.938-0.625
		c0.353-0.15,0.731-0.225,1.139-0.225c0.416,0,0.81,0.075,1.178,0.225c0.369,0.149,0.692,0.358,0.97,0.625s0.497,0.577,0.657,0.93
		C484.339,31.54,484.419,31.92,484.419,32.325 M478.874,36.878h4.97v16.623h-4.97V36.878z"/>
	<path fill="#1E275A" d="M487.85,53.501V36.878h3.077c0.31,0,0.569,0.07,0.778,0.208c0.207,0.14,0.354,0.348,0.439,0.626
		l0.289,0.962c0.321-0.299,0.652-0.578,0.994-0.834c0.342-0.257,0.708-0.474,1.098-0.649c0.391-0.177,0.812-0.315,1.267-0.417
		s0.948-0.153,1.482-0.153c0.908,0,1.712,0.159,2.412,0.473c0.7,0.316,1.291,0.754,1.771,1.315c0.481,0.561,0.844,1.229,1.091,2.003
		c0.245,0.776,0.368,1.618,0.368,2.525v10.564h-4.97V42.937c0-0.812-0.188-1.445-0.561-1.9c-0.375-0.454-0.925-0.681-1.65-0.681
		c-0.545,0-1.059,0.119-1.539,0.353c-0.48,0.236-0.942,0.551-1.379,0.946v11.846H487.85"/>
	<path fill="#1E275A" d="M336.727,87.229V65.332h3.078c0.31,0,0.569,0.069,0.777,0.209c0.208,0.139,0.354,0.347,0.439,0.625
		l0.37,1.219c0.32-0.354,0.665-0.674,1.034-0.962c0.368-0.288,0.764-0.537,1.186-0.745c0.422-0.209,0.876-0.372,1.362-0.489
		s1.019-0.177,1.595-0.177c0.865,0,1.668,0.192,2.404,0.577c0.738,0.385,1.374,0.941,1.908,1.667
		c0.534,0.728,0.953,1.616,1.259,2.669c0.304,1.053,0.456,2.247,0.456,3.583c0,1.25-0.174,2.403-0.521,3.462
		c-0.347,1.059-0.833,1.977-1.458,2.757c-0.625,0.781-1.373,1.39-2.244,1.827s-1.835,0.658-2.894,0.658
		c-0.865,0-1.593-0.123-2.18-0.369c-0.588-0.246-1.122-0.577-1.604-0.994v6.38H336.727 M344.838,68.811
		c-0.363,0-0.692,0.035-0.986,0.104c-0.294,0.07-0.566,0.169-0.816,0.297c-0.252,0.129-0.484,0.291-0.698,0.488
		c-0.214,0.199-0.428,0.426-0.642,0.682v7.053c0.375,0.417,0.78,0.708,1.219,0.874c0.438,0.166,0.898,0.248,1.379,0.248
		c0.459,0,0.881-0.091,1.266-0.272s0.719-0.473,1.002-0.873c0.283-0.401,0.505-0.922,0.666-1.563c0.16-0.641,0.24-1.421,0.24-2.34
		c0-0.876-0.064-1.613-0.193-2.212c-0.128-0.6-0.307-1.082-0.536-1.451c-0.23-0.368-0.505-0.633-0.826-0.794
		C345.591,68.891,345.233,68.811,344.838,68.811z"/> -->
	<!-- <path fill="#1E275A" d="M362.663,65.075c1.26,0,2.41,0.199,3.447,0.595c1.036,0.396,1.925,0.961,2.668,1.698
		c0.742,0.738,1.319,1.633,1.73,2.686c0.412,1.053,0.617,2.236,0.617,3.551c0,1.324-0.205,2.519-0.617,3.582
		c-0.411,1.063-0.988,1.967-1.73,2.709c-0.743,0.742-1.632,1.314-2.668,1.717c-1.037,0.399-2.188,0.6-3.447,0.6
		c-1.271,0-2.429-0.2-3.471-0.6c-1.041-0.402-1.939-0.975-2.692-1.717s-1.336-1.646-1.747-2.709
		c-0.413-1.063-0.618-2.258-0.618-3.582c0-1.314,0.205-2.498,0.618-3.551c0.411-1.053,0.994-1.947,1.747-2.686
		c0.753-0.737,1.651-1.303,2.692-1.698C360.234,65.274,361.391,65.075,362.663,65.075 M362.663,78.524
		c1.144,0,1.985-0.402,2.524-1.209c0.54-0.807,0.81-2.035,0.81-3.68c0-1.646-0.27-2.869-0.81-3.67
		c-0.539-0.802-1.381-1.203-2.524-1.203c-1.176,0-2.035,0.401-2.581,1.203c-0.545,0.801-0.817,2.023-0.817,3.67
		c0,1.645,0.272,2.873,0.817,3.68C360.627,78.122,361.487,78.524,362.663,78.524z"/>
	<path fill="#1E275A" d="M378.5,65.332V75.88c0,0.822,0.187,1.459,0.561,1.906c0.374,0.451,0.924,0.675,1.651,0.675
		c0.545,0,1.055-0.113,1.53-0.337c0.476-0.225,0.938-0.539,1.387-0.945V65.332h4.97v16.623h-3.078c-0.62,0-1.026-0.277-1.219-0.833
		l-0.305-0.963c-0.32,0.311-0.651,0.592-0.993,0.843c-0.343,0.251-0.708,0.465-1.098,0.641c-0.392,0.177-0.811,0.315-1.259,0.416
		c-0.448,0.103-0.94,0.153-1.475,0.153c-0.909,0-1.713-0.158-2.412-0.473c-0.701-0.315-1.291-0.756-1.772-1.323
		c-0.479-0.565-0.844-1.234-1.09-2.003c-0.245-0.771-0.368-1.613-0.368-2.533V65.332H378.5"/>
	<path fill="#1E275A" d="M392.444,81.954V65.332h2.95c0.245,0,0.451,0.022,0.616,0.065c0.166,0.043,0.305,0.109,0.418,0.199
		c0.112,0.092,0.197,0.211,0.256,0.361s0.109,0.331,0.152,0.545l0.272,1.554c0.608-0.94,1.293-1.682,2.052-2.228
		c0.759-0.545,1.587-0.817,2.484-0.817c0.759,0,1.368,0.183,1.827,0.545l-0.642,3.655c-0.042,0.225-0.127,0.382-0.256,0.473
		c-0.128,0.092-0.299,0.137-0.513,0.137c-0.182,0-0.396-0.024-0.642-0.073c-0.246-0.048-0.556-0.071-0.93-0.071
		c-1.304,0-2.33,0.693-3.077,2.083v10.194H392.444"/>
	<path fill="#1E275A" d="M417.707,82.212c-0.791,0-1.488-0.115-2.093-0.346c-0.604-0.229-1.111-0.555-1.523-0.978
		c-0.41-0.421-0.723-0.932-0.937-1.53s-0.32-1.267-0.32-2.004v-8.592h-1.411c-0.256,0-0.476-0.083-0.656-0.249
		c-0.183-0.165-0.273-0.407-0.273-0.729v-1.938l2.646-0.514l0.978-2.609c0.128-0.513,0.491-0.769,1.09-0.769h2.597v3.41h4.038v3.398
		h-4.038v8.256c0,0.385,0.094,0.702,0.28,0.953c0.188,0.251,0.457,0.376,0.81,0.376c0.182,0,0.334-0.019,0.457-0.055
		c0.122-0.038,0.229-0.08,0.321-0.13l0.256-0.127c0.079-0.037,0.174-0.057,0.28-0.057c0.15,0,0.271,0.035,0.36,0.104
		c0.092,0.069,0.185,0.179,0.281,0.329l1.507,2.355c-0.642,0.481-1.362,0.844-2.164,1.082
		C419.389,82.092,418.561,82.212,417.707,82.212"/>
	<path fill="#1E275A" d="M432.1,65.075c1.261,0,2.41,0.199,3.446,0.595c1.037,0.396,1.927,0.961,2.669,1.698
		c0.743,0.738,1.32,1.633,1.731,2.686s0.617,2.236,0.617,3.551c0,1.324-0.206,2.519-0.617,3.582s-0.988,1.967-1.731,2.709
		c-0.742,0.742-1.632,1.314-2.669,1.717c-1.036,0.399-2.186,0.6-3.446,0.6c-1.271,0-2.428-0.2-3.47-0.6
		c-1.042-0.402-1.939-0.975-2.693-1.717c-0.753-0.742-1.335-1.646-1.747-2.709c-0.411-1.063-0.617-2.258-0.617-3.582
		c0-1.314,0.206-2.498,0.617-3.551c0.412-1.053,0.994-1.947,1.747-2.686c0.754-0.737,1.651-1.303,2.693-1.698
		S430.829,65.075,432.1,65.075 M432.1,78.524c1.145,0,1.984-0.402,2.525-1.209c0.54-0.807,0.81-2.035,0.81-3.68
		c0-1.646-0.27-2.869-0.81-3.67c-0.541-0.802-1.381-1.203-2.525-1.203c-1.176,0-2.035,0.401-2.58,1.203
		c-0.545,0.801-0.817,2.023-0.817,3.67c0,1.645,0.272,2.873,0.817,3.68S430.924,78.524,432.1,78.524z"/>
	<path fill="#1E275A" d="M448.996,59.476c0,0.395-0.08,0.768-0.241,1.114c-0.16,0.349-0.379,0.651-0.656,0.914
		c-0.278,0.262-0.602,0.471-0.971,0.625c-0.368,0.155-0.761,0.233-1.178,0.233c-0.406,0-0.785-0.078-1.138-0.233
		c-0.353-0.154-0.666-0.363-0.938-0.625c-0.271-0.263-0.485-0.565-0.641-0.914c-0.155-0.347-0.232-0.72-0.232-1.114
		c0-0.406,0.077-0.785,0.232-1.138s0.369-0.662,0.641-0.931c0.272-0.267,0.586-0.475,0.938-0.625
		c0.353-0.148,0.731-0.224,1.138-0.224c0.417,0,0.81,0.075,1.178,0.224c0.369,0.15,0.692,0.359,0.971,0.625
		c0.277,0.269,0.496,0.578,0.656,0.931C448.916,58.69,448.996,59.069,448.996,59.476 M448.418,65.333v16.623l-4.969-0.002V65.332
		L448.418,65.333z"/> -->
	<path fill="#FFFFFF" d="M53.999,0C24.177,0,0,24.173,0,53.999C0,83.822,24.177,108,53.999,108C83.823,108,108,83.822,108,53.999   C108,24.173,83.823,0,53.999,0"/>
	<path fill="#1E275A" d="M123.649,78.812h8.896c3.692,0,4.698,1.153,4.698,5.501c0,4.045-1.006,5.508-4.745,5.508h-8.849V78.812    M135.753,83.782c0-3.179-0.987-3.758-2.815-3.758h-7.8v8.578h7.558c1.81,0,3.057-0.396,3.057-3.695V83.782z"/>
	<polyline fill="#1E275A" points="141.553,78.812 152.364,78.812 152.364,80.024 143.044,80.024 143.044,83.541 151.999,83.541    151.999,84.756 143.044,84.756 143.044,88.603 152.427,88.603 152.427,89.821 141.553,89.821 141.553,78.812  "/>
	<path fill="#1E275A" d="M156.096,86.353h1.402v0.78c0,1.074,0.576,1.589,2.43,1.589h4.623c2.159,0,2.799-0.455,2.799-2.031   c0-1.387-0.549-1.738-2.402-1.738h-2.83c-4.545,0-6.037-0.271-6.037-3.192c0-2.506,1.492-3.067,4.562-3.067h3.209   c3.696,0,4.623,0.942,4.623,2.9v0.381h-1.4c-0.027-1.749-0.213-2.064-4.119-2.064h-1.583c-2.876,0-3.894,0.146-3.894,1.959   c0,1.308,0.41,1.75,2.74,1.75h4.407c2.906,0,4.121,0.834,4.121,2.705v0.716c0,2.704-2.219,2.903-4.426,2.903h-4.133   c-2.176,0-4.092-0.379-4.092-2.781V86.353"/>
	<polyline fill="#1E275A" points="181.973,78.812 184.298,78.812 190.735,88.038 197.165,78.812 199.491,78.812 199.491,89.821    198.001,89.821 198.001,80.147 197.972,80.147 191.261,89.821 190.202,89.821 183.495,80.147 183.464,80.147 183.464,89.821    181.973,89.821 181.973,78.812  "/>
	<path fill="#1E275A" d="M203.714,82.813c0-2.789,0.942-4.121,3.923-4.121h6.34c2.982,0,3.923,1.332,3.923,4.121v3.01   c0,2.779-0.941,4.119-3.923,4.119h-6.34c-2.981,0-3.923-1.34-3.923-4.119V82.813 M216.409,82.249c0-1.917-1.151-2.34-2.584-2.34   h-6.037c-1.428,0-2.584,0.423-2.584,2.34v4.136c0,1.913,1.156,2.337,2.584,2.337h6.037c1.433,0,2.584-0.424,2.584-2.337V82.249z"/>
	<path fill="#1E275A" d="M222.214,78.812h1.488v8.228c0,1.06,0.365,1.682,2.388,1.682h5.168c2.022,0,2.387-0.622,2.387-1.682v-8.228   h1.492v8.243c0,2.232-1.125,2.887-3.922,2.887h-5.08c-2.798,0-3.921-0.654-3.921-2.887V78.812"/>
	<polyline fill="#1E275A" points="239.736,78.812 241.225,78.812 241.225,88.603 249.771,88.603 249.771,89.821 239.736,89.821    239.736,78.812  "/>
	<rect x="253.093" y="78.812" fill="#1E275A" width="1.492" height="11.009"/>
	<polyline fill="#1E275A" points="259.131,78.812 261.352,78.812 271.435,88.481 271.435,78.812 272.926,78.812 272.926,89.821    270.706,89.821 260.62,80.147 260.62,89.821 259.131,89.821 259.131,78.812  "/>
	<path fill="#1E275A" d="M277.159,86.354h1.398v0.778c0,1.074,0.578,1.591,2.436,1.591h4.621c2.16,0,2.797-0.453,2.797-2.033   c0-1.387-0.547-1.736-2.4-1.736h-2.832c-4.545,0-6.035-0.272-6.035-3.194c0-2.506,1.49-3.067,4.562-3.067h3.209   c3.693,0,4.623,0.942,4.623,2.901v0.38h-1.398c-0.033-1.749-0.211-2.064-4.122-2.064h-1.581c-2.875,0-3.896,0.146-3.896,1.959   c0,1.31,0.412,1.75,2.74,1.75h4.411c2.901,0,4.122,0.834,4.122,2.707v0.715c0,2.703-2.222,2.902-4.426,2.902h-4.137   c-2.175,0-4.092-0.38-4.092-2.781V86.354"/>
	<path fill="#F99D24" d="M143.088,47.664c-2.23,0-2.964-1.479-2.964-2.964c0-1.504,0.734-2.962,2.964-2.962h34.756V29.115h-37.72   c-13.26,0-17.669,6.304-17.669,15.474c0,9.332,4.409,15.643,17.669,15.643l37.72-0.004V47.617L143.088,47.664"/>
	<path fill="#F99D24" d="M213.393,20.056c3.035,0,6.069,1.131,6.069,4.528h17.223c0-8.053-5.837-17.722-23.292-17.722   c-17.446,0-23.283,9.669-23.283,17.722v4.531h-6.082v12.404h6.082v18.709h17.225V41.519h12.127V29.115h-12.127v-4.531   C207.335,21.187,210.355,20.056,213.393,20.056"/>
	<path fill="#F99D24" d="M273.247,29.115h-30.235c-13.26,0-17.668,6.306-17.668,15.474c0,0.227,0.016,0.44,0.022,0.664v27.59h17.646   V60.228h30.235c13.257,0,17.667-6.305,17.667-15.639C290.914,35.423,286.503,29.115,273.247,29.115 M270.766,47.62   c-3.469,0.006-2.561,0.014-8.889,0.021c-6.333-0.007-12.917-0.015-16.383-0.021c-1.843-0.206-2.483-1.55-2.483-2.92   c0-1.502,0.737-2.962,2.963-2.962h24.307c2.229,0,2.965,1.46,2.965,2.962C273.247,46.07,272.606,47.414,270.766,47.62z"/>
	<path fill="#F99D24" d="M53.999,0C24.177,0,0,24.173,0,53.999C0,83.822,24.177,108,53.999,108C83.823,108,108,83.822,108,53.999   C108,24.173,83.823,0,53.999,0 M53.999,105.736c-28.572,0-51.734-23.159-51.734-51.733c0-28.576,23.162-51.736,51.734-51.736   c28.574,0,51.737,23.161,51.737,51.736C105.736,82.573,82.573,105.736,53.999,105.736z"/>
	<path fill="#1E275A" d="M53.999,6.814C28.124,6.814,7.15,27.789,7.15,53.665c0,16.979,8.498,31.519,22.02,39.734   c1.952,1.118,2.648-1.219,3.369-3.147c5.272-14.161,21.452-41.131,24.001-43.676c2.55-2.55,2.729-4.15,1.185-5.691   c-1.541-1.542-2.964-2.373-5.925-4.386c-2.967-2.019-4.388-1.302-6.995,3.554c-2.539,4.733-14.051,34.146-16.526,47.963   c-10.439-7.831-17.196-20.298-17.196-34.351c0-23.704,19.212-42.917,42.917-42.917c23.704,0,42.917,19.214,42.917,42.917   c0,23.703-19.214,42.917-42.917,42.917c-1.823,0-3.614-0.129-5.379-0.348c-2.054-0.092-2.424,0.57-2.594,1.42   c-0.174,1.083,0,2.217,1.99,2.466c1.96,0.252,3.957,0.395,5.984,0.395c25.874,0,46.851-20.976,46.851-46.85   C100.849,27.789,79.873,6.814,53.999,6.814"/>
	<path fill="#1E275A" d="M59.702,18.21c-5.031,0-9.107,4.08-9.107,9.109c0,5.026,4.077,9.108,9.107,9.108   c5.03,0,9.106-4.082,9.106-9.108C68.809,22.291,64.732,18.21,59.702,18.21"/>
	<path fill="#1E275A" d="M58.533,70.166c2.457,0.557,6.324,4.914,6.607,8.528c0.278,3.616,1.555,6.337,4.082,5.582   c3.607-1.078,11.036-8.862,8.147-9.93c-2.895-1.071-5.245,2.901-7.142,2.901c-1.9,0-1.563-2.567-2.567-7.26   c-1.009-4.684-3.235-10.709-9.264-10.709c-7.232,0-14.615,11.416-15.625,14.283c-0.916,2.607,0.958,4.907,3.535,0.555   C48.888,69.764,56.079,69.606,58.533,70.166"/>
	<path fill="#1E275A" d="M61.389,48.505c1.49,2.121,5.951,7.981,9.61,7.981c3.205,0,6.479-2.191,9.48-5.826   c3.505-4.243,0.609-5.535-1.064-3.867c-3.359,3.359-5.864,4.069-7.891,4.069c-2.028,0-5.821-2.485-8.042-4.71   C61.26,43.932,59.527,45.859,61.389,48.505"/>
	<!-- <path fill="#1E275A" d="M440.11,60.304H337.047c-0.466,0-0.844-0.378-0.844-0.844c0-0.467,0.378-0.844,0.844-0.844H440.11
		c0.466,0,0.844,0.377,0.844,0.844C440.954,59.926,440.576,60.304,440.11,60.304"/>
	<path fill="#1E275A" d="M509.157,60.304h-57.314c-0.465,0-0.842-0.378-0.842-0.844c0-0.467,0.377-0.844,0.842-0.844h57.314
		c0.465,0,0.844,0.377,0.844,0.844C510,59.926,509.622,60.304,509.157,60.304"/> -->
</g>
</svg>