<?xml version="1.0" encoding="utf-8"?>
<!-- Generator: Adobe Illustrator 26.2.1, SVG Export Plug-In . SVG Version: 6.00 Build 0)  -->
<svg version="1.1" id="Layer_1" xmlns="http://www.w3.org/2000/svg" xmlns:xlink="http://www.w3.org/1999/xlink" x="0px" y="0px"
	 width="1000px" height="500px" viewBox="0 0 1920 1080" style="enable-background:new 0 0 1920 1080;" xml:space="preserve">
<style type="text/css">
	.st0{fill:#EB3300;}
	.st1{fill:#FFFFFF;}
</style>
<g>
	<path class="st0" d="M548.2,429.4c0,8.9,0,17.8,0,26.7c0,51.2-0.3,102.4,0.2,153.5c0.1,10.8-3.4,14.1-13.9,13.8
		c-21.9-0.6-43.9-0.2-67-0.2c0-148.6,0-296.1,0-445.9c18.2,0,36.9-0.2,55.5,0c32.8,0.5,24-5,33,25.8
		c15.5,52.9,29.9,106.2,44.7,159.3c0.7,2.4,1.7,4.8,5.8,7c0-63.6,0-127.1,0-192c26.6,0,50.7-0.3,74.8,0.4c2.7,0.1,5.8,4.9,7.6,8.1
		c1.1,2.1,0.3,5.3,0.3,8c0,136.9,0,273.9,0,410.8c0,18.6-0.1,18.6-18.2,18.6c-19.3,0-38.6-0.2-57.9,0.1c-7.4,0.1-10.8-2.3-12.8-10.1
		c-13.8-55.7-28.3-111.3-42.6-166.8c-1.5-5.9-3.8-11.6-5.8-17.4C550.6,429.1,549.4,429.3,548.2,429.4z"/>
	<path class="st0" d="M727.2,174.7c55.9,3,109.8,3.5,163,9.6c34.8,4,55.1,34.9,58,77.6c1.7,25.5,1.9,51.1,1.9,76.7
		c-0.1,68.7,0.6,137.4-1.6,206c-1.9,57.3-22.7,76.7-80.2,78.3c-43.1,1.2-86.2-0.1-129.3,0.5c-13,0.2-11.8-7.4-11.8-15.7
		c0-114,0-228,0-342.1C727.2,237,727.2,208.3,727.2,174.7z M823.1,400.6c0,45.3-0.1,90.7,0,136c0,12.7,3.5,14.8,15.6,10.7
		c15.5-5.3,15.6-18.7,15.7-31c0.4-79.5,0.4-158.9,0.2-238.4c0-5.2-0.5-12.4-3.7-15.1c-6-5-14.2-7.3-21.5-10.8
		c-2.1,5.5-5.9,11.1-6,16.6C822.9,312.5,823.1,356.5,823.1,400.6z"/>
	<path class="st0" d="M1418.2,392.3c4.3,2.1,7.4,3.9,10.6,5.2c25.7,10.2,37.2,30.6,37.8,56.7c1.1,51.6,0.4,103.2,1.1,154.8
		c0.2,11.3-3.7,14.8-14.7,14.4c-19.7-0.7-39.5-0.9-59.2,0.1c-12.7,0.6-17.1-3-16.9-16.3c0.5-50.2-0.1-100.5-0.6-150.8
		c-0.1-7.1-0.7-14.7-3.5-21c-2.3-5-7.6-10-12.8-12.1c-12.1-4.8-16.5-1.3-16.5,11.7c-0.1,53.8,0,107.7,0,161.5c0,8,0,16.1,0,25.6
		c-5.7,0.4-10.4,1-15.2,1c-19.3,0.1-38.6,0.2-57.9,0c-26-0.2-24.2,3.6-24.2-24.9c-0.1-33.7,0-67.3,0-101c0-101,0.2-201.9-0.3-302.9
		c-0.1-13.3,3.3-18,17.3-17.4c42.1,1.8,84.3,1.3,126.4,3.3c39.4,1.9,62.4,21.3,71.6,59c8.7,35.8,8.4,71.9,2.4,108.2
		c-3.7,21.9-15,36-37.7,39.6c-1.7,0.3-3.4,1.2-4.9,2.1C1420.3,389.5,1419.8,390.4,1418.2,392.3z M1343.4,351.7
		c22.3,2.5,31.2-2.7,32.3-19.9c1.2-19.1,1-38.5,0.2-57.6c-0.5-11.9-7.7-19.7-20-21.9c-8.2-1.5-12.8,0.8-12.6,10.3
		c0.4,17,0.1,34,0.1,51C1343.4,326.3,1343.4,339.1,1343.4,351.7z"/>
	<path class="st0" d="M1113.5,364.5c0-55.7,0.3-111.3-0.2-167c-0.1-12.4,3.7-16.5,16.1-16c22.4,0.9,44.9,0.5,67.3,0.1
		c9.1-0.2,12.7,2.8,12.6,12.4c-0.4,111.3,0.3,222.7-1.1,334c-0.8,66-56.1,108.9-123.2,98.8c-40-6-74.5-21.4-88.4-62.3
		c-7-20.7-9.1-43.9-9.4-66c-1-100.6-0.4-201.1-0.9-301.7c-0.1-12,3.7-15.6,15.4-15.2c22,0.8,44,1,66,0c13.6-0.7,15.2,5.8,15.2,16.9
		c-0.3,103.7-0.2,207.4-0.1,311.1c0,9.9,0.3,19.8,1.3,29.6c0.8,8.5,3.8,16.3,14.5,15.9c10.4-0.4,13.6-8.1,13.8-16.7
		c0.7-25.1,0.9-50.3,1-75.4C1113.6,430,1113.5,397.3,1113.5,364.5z"/>
	<path class="st0" d="M219.6,177.8c4.8-0.3,9.2-0.7,13.6-0.7c59.7,0,119.4,0.4,179.1-0.3c12.8-0.1,16,4.1,15.5,16
		c-0.9,19.3-0.7,38.6-0.1,57.9c0.3,10.2-3.6,13.2-13.3,13.1c-26-0.4-52.1,0.3-78.1-0.2c-11.5-0.2-16.2,3.9-15.8,15.6
		c0.6,19.3,0.7,38.6,0,57.9c-0.4,12.2,4.9,15.4,16.1,15.1c23.3-0.6,46.7,0.1,70-0.3c9-0.2,12.9,2.3,12.6,12.1
		c-0.6,19.7-0.5,39.5,0,59.2c0.2,9-3.2,11.7-11.8,11.5c-24.2-0.4-48.5,0.1-72.7-0.2c-9.4-0.1-14.2,2.7-14.1,12.9
		c0.3,25.1,0.3,50.3,0,75.4c-0.1,9.8,4.1,13.5,13.8,13.4c31-0.3,61.9,0.2,92.9-0.3c10.6-0.2,14.2,3.6,13.9,14.1
		c-0.6,20.2-0.5,40.4,0,60.6c0.2,8.9-2.3,12.8-12.1,12.8c-66.4-0.3-132.9-0.2-199.3-0.1c-7.3,0-11.7-1.2-11.7-10.2
		c0.3-143.6,0.3-287.3,0.4-430.9C218.5,181.4,218.9,180.5,219.6,177.8z"/>
	<path class="st0" d="M1493.2,623.2c4-40,7.8-77.9,11.5-115.7c7.8-79,15.5-158,23.5-237c2.8-28.1,6.1-56.2,10.1-84.1
		c0.5-3.4,6.4-8.4,9.8-8.5c35.5-0.6,70.9-0.2,106.4-0.5c7.9-0.1,11.3,2.9,12.1,10.6c5.7,53.5,11.3,107.1,17.4,160.6
		c9.9,86.9,20.2,173.7,30.5,260.5c1.2,10-0.7,15-12.4,14.5c-21.1-0.8-42.2-0.5-63.3-0.1c-8.5,0.2-12-2.8-12.3-11.5
		c-0.5-18.4-2.2-36.7-2.6-55.1c-0.3-15-10.1-13.9-20.4-14.2c-10.6-0.4-17,2-17.3,14.4c-0.4,18.8-1.7,37.7-3.4,56.4
		c-0.3,3.5-4.8,9.4-7.5,9.5C1548.8,623.4,1522.4,623.2,1493.2,623.2z M1606.9,290.7c-1.1-0.1-2.3-0.2-3.4-0.3
		c-0.8,2.9-2,5.8-2.2,8.8c-4.9,51.8-9.5,103.5-14.5,155.3c-1.3,13.8,8.4,11,16,11.2c8.3,0.1,17.8,2.2,16.6-12
		c-3.2-37-5.9-74.1-8.7-111.2C1609.3,325.2,1608.1,308,1606.9,290.7z"/>
	<path d="M637.8,641.4c17.2,0,31.7,0,47.3,0c0,81,0,161.5,0,244.2c-14.6,0-29.2,0.5-43.7-0.4c-2.6-0.2-5.9-5.8-6.9-9.4
		c-6.9-25.1-13.2-50.3-19.8-75.4c-1.1-4.2-2.5-8.3-5.8-12.2c0,31.9,0,63.8,0,97.6c-14,0-26.8,0.3-39.6-0.3c-2.3-0.1-5.6-3.7-6.4-6.3
		c-1.1-3.7-0.4-8-0.4-12c0-70.9,0.2-141.8-0.2-212.6c0-10.1,2.2-14.1,13.4-14c33.1,0.4,33.1-0.2,42.1,31.8
		c5.7,20.3,11.4,40.5,17.2,60.8c0.2,0.8,0.8,1.5,2.8,5.7C637.8,704.6,637.8,673.8,637.8,641.4z"/>
	<path d="M464.6,884.9c-17.1,0-32.6,0-49.4,0c-1.3-13.7-2.5-27.3-3.8-41.1c-11.9-4.4-17.2-0.7-17.4,11.5c-0.1,9.4-1,18.7-1.7,29.2
		c-16.4,0-32.2,0-50.6,0c8.2-80.9,16.3-161.6,24.6-243.8c22.2,0,43.1-0.3,64.1,0.4c2.7,0.1,7.1,5.2,7.5,8.3
		C446.9,727.3,455.6,805.2,464.6,884.9z M404.7,721c-1.2-0.2-2.4-0.3-3.5-0.5c-2,23.3-4.3,46.7-5.6,70c-0.1,2.4,5,5.1,7.8,7.7
		c2.1-3.1,6.1-6.3,6-9.3C408.2,766.2,406.4,743.6,404.7,721z"/>
	<path d="M274.1,788.3c0,32.7,0,63.9,0,96.3c-19.1,0-37.2,0-56.3,0c0-80.8,0-161.6,0-245.2c29.7,1.5,58.8,1.6,87.6,4.8
		c18.1,2,30.5,14.3,31.6,33.3c1.5,24.5,2.6,49.3,0.9,73.8c-1.6,23.1-13.1,32.7-36.6,35.4C292.9,787.5,284.3,787.7,274.1,788.3z
		 M275.1,684.2c0,20.8,0,40.6,0,60.6c15.5-2.5,16.1-3.8,16.1-31.2C291.1,687.1,290.9,686.7,275.1,684.2z"/>
	<path d="M793.5,885c-20.2,0-37.6,0-56.8,0c0-64,0-127.8,0-194c-9.2,0-16.8,0.8-24-0.4c-3.5-0.6-9-4.7-9.2-7.5
		c-1-13.3-0.4-26.8-0.4-41.3c40.8,0,80.5,0,121.3,0c0,15.5,0,31.3,0,48.6c-9.9,0-19.5,0-31,0C793.5,755.7,793.5,819.6,793.5,885z"/>
	<path d="M481,640.7c16.4,0,32-0.1,47.5,0.1c9.7,0.1,6.9,7.9,6.9,13c0.2,60.1,0.1,120.2,0.1,180.3c0,13.9-0.3,27.8,0.1,41.7
		c0.2,8.2-3,11.2-11,10.9c-14.2-0.4-28.5-0.1-43.6-0.1C481,804,481,723.1,481,640.7z"/>
	<path class="st1" d="M823.1,400.6c0-44-0.2-88,0.3-132c0.1-5.6,3.9-11.1,6-16.6c7.3,3.4,15.5,5.8,21.5,10.8
		c3.2,2.7,3.7,9.9,3.7,15.1c0.2,79.5,0.2,158.9-0.2,238.4c-0.1,12.3-0.2,25.8-15.7,31c-12.1,4.1-15.5,2.1-15.6-10.7
		C823,491.2,823.1,445.9,823.1,400.6z"/>
	<path class="st1" d="M1343.4,351.7c0-12.6,0-25.4,0-38.2c0-17,0.3-34-0.1-51c-0.2-9.4,4.4-11.7,12.6-10.3c12.2,2.2,19.4,10,20,21.9
		c0.8,19.2,1,38.5-0.2,57.6C1374.6,349,1365.8,354.1,1343.4,351.7z"/>
	<path class="st1" d="M1606.9,290.7c1.2,17.2,2.4,34.5,3.7,51.7c2.8,37.1,5.5,74.2,8.7,111.2c1.3,14.3-8.3,12.2-16.6,12
		c-7.6-0.1-17.3,2.6-16-11.2c4.9-51.7,9.6-103.5,14.5-155.3c0.3-3,1.5-5.8,2.2-8.8C1604.6,290.6,1605.8,290.7,1606.9,290.7z"/>
	<path class="st1" d="M404.7,721c1.6,22.6,3.5,45.3,4.6,67.9c0.1,3-3.9,6.2-6,9.3c-2.7-2.6-7.9-5.3-7.8-7.7
		c1.4-23.4,3.6-46.7,5.6-70C402.4,720.6,403.6,720.8,404.7,721z"/>
	<path class="st1" d="M275.1,684.2c15.8,2.5,16.1,2.9,16.1,29.4c0,27.4-0.6,28.7-16.1,31.2C275.1,724.8,275.1,704.9,275.1,684.2z"/>
</g>
</svg>
