<?xml version="1.0" encoding="utf-8"?>
<!-- Generator: Adobe Illustrator 26.2.1, SVG Export Plug-In . SVG Version: 6.00 Build 0)  -->
<svg version="1.1" id="Layer_1" xmlns="http://www.w3.org/2000/svg" xmlns:xlink="http://www.w3.org/1999/xlink" x="0px" y="0px"
	width="1000px" height="500px" viewBox="0 0 249.1 87" style="enable-background:new 0 0 249.1 87;" xml:space="preserve">
<g id="Calque_2">
	<g id="Logos">
		<g id="Spécialiste">
			<path d="M0,51c0.6-0.1,1-0.9,1.8-0.6c1.9,0.8,4,0.8,5.8,0c0.4-0.1,0.9-0.1,1.3,0c0.4,0.7,0.1,1.4,0.2,2c0.2,0.3,0.4,0,0.6,0
				c2.5-0.8,4.8-2.1,7.3-3.1c3-1.3,6-2.3,8.9-3.4c0.9-0.4,1.9-0.1,2.5,0.6c0.3,0.9,0.1,1.8-0.5,2.5c-1.2,1.4-2.7,2.6-4.3,3.5
				c-1.3,0.9-2.2,2.2-3.6,2.8c-1.3,0.7-2.4,1.7-3.4,2.8c-0.9,0.8-2.2,1.1-2.9,2.5l1.9,1.6c-2.7,1.7-3.3,4.5-4.3,7.2
				c-3.9-2.3-7.8-4.2-11.2-7V51z"/>
			<path d="M0,21.2c3.3-2.8,7.3-4.5,11.1-7c1.3,2.5,1.7,5.6,4.5,7.2l-1.8,1.9c1.3,1,2.6,2.1,3.9,3.1s2.9,2.2,4.3,3.3
				c1.1,1.1,2.3,2,3.7,2.9c1,0.5,1.5,1.4,2.3,2c0.7,0.4,1,1.2,0.6,1.9C28,37.5,27,38,26,37.7c-3.3-1.4-6.8-2.4-10.1-3.9
				c-2-1-4-1.9-6.1-2.6c-0.4-0.1-0.7-0.4-0.6,0.2c0.1,0.7-0.2,1.3-0.8,1.6c-0.6,0.2-1.3,0.2-1.9,0c-2-0.6-2-0.6-4.4,0.1
				c-0.8,0.2-1.4-0.3-2-0.6L0,21.2z"/>
			<path d="M35.5,83.6c-1.9-1.3-3.8-2.4-5.8-3.4c-0.8-0.4-1.6-0.9-2.3-1.4c-1.3-1.2-1.5-1.4-0.3-2.3c1.5-1.2,1.9-3,2.7-4.6
				c0.2-0.4-0.2-1.1,0.3-1.2c0.5-0.2,1.2-0.1,1.5,0.4c0.1,0.2,0.5,0.1,1,0.2c-0.2-2.2,1-4.2,0.6-6.4c-0.2-1,0.7-1.8,0.6-2.9
				c-0.3-0.9-0.1-1.9,0.5-2.6c-0.2-1.8,0.3-3.5,0.5-5.2c0-0.6,0.3-1.3,0.7-1.7c1.3-1.2,2.2-1,2.7,0.8c0.6,1.8,1,3.7,1.2,5.5
				c0.3,2.8,1.1,5.5,1.1,8.4c0.9,1.2,0.4,2.7,0.7,4c0.3,0,0.7,0,0.8-0.1s0.6-0.6,1-0.4c0.4,0.2,0.7,0.6,0.9,1c0.2,0.4,0,0.8,0.3,1.3
				c0.6,1.3,1.4,2.5,2.4,3.6c1.2,1.1,1,1.2-0.3,2.4c-0.8,0.6-1.6,1.1-2.5,1.5c-2,1-3.8,2.1-5.6,3.4L35.5,83.6z"/>
			<path d="M0,39.5c1-1.4,2.6-2.6,4.2-2.7c1,0,2.1,0.7,3.2,1C9,38.3,8.9,40,9.6,41c0.4,0.8,0.2,1.8-0.5,2.3C8.9,46,6.4,46,4.8,47
				c-1.3-1-3.5-0.4-4.2-2.5C0.5,44.2,0.4,44,0,44.1V39.5z"/>
			<path d="M32.2,12.6c-0.3-0.1-0.5,0.2-0.9,0.4c-1.1,0.5-1.2,0.3-1.6-0.8c-0.6-1.9-1.6-3.6-3-5.1c-0.8-0.8-0.7-1.1,0.4-1.9
				c2.6-1.8,5.3-3.3,8.1-4.7c1-0.6,2.1-0.6,3.1,0C41.3,2,44.1,3.6,47,5.2c0.8,0.4,0.5,1,0.4,1.4s-0.6,0.7-1,1
				c-1.3,1.1-2.1,2.5-2.4,4.2c-0.4,1.3-0.4,1.3-2,0.9c-0.4-0.1-0.9-0.1-0.8,0.4c0.3,1.9-1,3.6-0.6,5.5c0.2,1.1-0.8,1.8-0.7,2.9
				c0.1,1,0,2-0.4,3c-0.3,1.4-0.5,2.9-0.6,4.3c-0.2,0.9-0.4,1.8-0.8,2.6c-0.2,0.3-0.7,0.2-1,0.2c-2.1,0-2-0.1-2.3-2.2
				c-0.2-1.4-0.4-2.9-0.6-4.3s-0.1-3-0.5-4.3C32.9,18.1,33.4,15.4,32.2,12.6z"/>
			<path d="M62.4,69.2c-0.2-2.8-0.7-3.8-4.1-7.1l1.7-1.6c-0.1-0.2-0.1-0.3-0.2-0.4C58,58.5,56,57,53.9,55.6
				c-1.2-0.7-1.7-2.3-3.3-2.4c-1.3-1.7-3.4-2.6-4.8-4.2c-0.5-0.4-0.7-1.1-0.6-1.8c0.2-0.6,1.7-1.2,2.3-1.1c2.7,0.3,5,1.6,7.5,2.5
				c2.8,1.1,5.5,2.3,8.2,3.5c1,0.4,1.5,0.3,1.9-0.5c0.6-1.5,0.8-1.7,2.2-1c1,0.5,2.2,0.6,3.2,0.2c1.1-0.5,2-0.2,3.2-0.5
				c0,4,0,7.9,0,11.8c0,0.9-0.6,1.1-1.3,1.5C69.1,65.3,66,67.6,62.4,69.2z"/>
			<path d="M62.4,14.4c3.7,1.5,6.7,4.1,10.3,5.6c0.7,0.2,1.2,0.9,1.1,1.7c0,3.8,0,7.6,0,11.4c-0.8,0.2-1.6,0.1-2.3-0.2
				c-1.4-0.5-2.9-0.6-4.4-0.2c-1.7,0.3-1.7,0.4-2.4-0.9c-0.2-0.3,0.1-0.8-0.4-0.9c-1.4,0.6-2.8,1.4-4.3,2c-3.4,1.2-6.5,3.1-10.1,3.8
				c-0.6,1-1.9-0.1-2.5,0.8c-0.3,0.4-0.5,0-0.6-0.2c-0.6-0.6-1.2-1.2-1.9-1.9c4.9-4.4,10-8.2,15-12L58,21.7
				C60.5,20,62.1,17.4,62.4,14.4z"/>
			<path d="M53.1,64.7c2.8,0,5.2,2.2,5.3,5.1c0.1,2.5-2.6,5.3-5.2,5.2c-1.3,0-2.5-0.5-3.4-1.4c-1.1-0.9-1.8-2.4-1.8-3.8
				c0.1-1.1,0-2.1,1-3C51,65,51.3,64.7,53.1,64.7z"/>
			<path d="M53.1,18.9c-1.8,0.2-2.8-1-4-2c-0.8-0.8-1.2-1.9-1.1-3c0-2.8,2.3-5.2,5.1-5.3c2.3,0,5.3,2.9,5.2,5.2
				c0,1.4-0.6,2.7-1.6,3.6C55.8,18.4,54.5,19,53.1,18.9z"/>
			<path d="M16,70.1c0-3.6,1.8-5.4,4.8-5.4c2.5,0,5,2.5,4.9,4.9c0,1.5-0.6,3-1.7,4.1c-0.9,0.8-2.2,1.3-3.5,1.3
				c-1.4-0.1-2.6-0.7-3.5-1.7C16.1,72.5,15.7,71.3,16,70.1z"/>
			<path d="M16,13.6c-0.2-1,0-2.1,0.6-2.9c0.8-1.1,2.2-1.5,3.4-2c1.2-0.3,2.4,0,3.3,0.8c2.4,1.5,3.1,4.7,1.6,7.1
				c-0.5,0.7-1.1,1.3-1.9,1.8c-2.1,1.3-5,0.7-6.3-1.4c-0.5-0.8-0.7-1.7-0.7-2.6C16,14.2,16,14,16,13.6z"/>
			<path d="M36.9,46.4c-1.3,0.1-2.5,0.1-3.6-1.1c-0.9-1-1.3-2.2-1.3-3.5C31.8,40,32.8,39,33.9,38c0.8-0.8,2-1.3,3.1-1.3
				c1.6,0,2.8,1,3.9,2.2c0.9,0.9,0.7,1.8,0.8,2.8c0.1,1.3-0.4,2.6-1.3,3.5C39.5,46.2,38.2,46.6,36.9,46.4z"/>
			<path d="M69.2,46.4c-0.4,0-0.8,0-1.1,0c-1.6-0.2-2.8-0.9-3.2-2.4c-0.5-1.6-0.4-3.3,0.3-4.9c0.2-0.5,0.6-0.9,1-1.3
				c0.9-0.5,2-0.9,3-1.1c0.7-0.2,1.7,0.3,2.6,0.5c1.8,0.5,3.1,3.6,2.5,5.5C73.3,45.6,72.2,46.4,69.2,46.4z"/>
			<path d="M28.4,19.9c1.5,3.7,3.1,7.4,4.5,11.1c0.4,1.1-0.2,2.4-1.3,2.8c0,0-0.1,0-0.1,0c-0.5,0.1-1,0-1.3-0.3
				c-3.1-2.8-5.4-6.3-7.8-9.6c-0.2-0.3-0.2-0.8,0.2-1c0.1-0.1,0.2-0.1,0.3-0.1C24.9,22.3,26.3,20.6,28.4,19.9z"/>
			<path d="M30.9,49.7c0.3,0.3,0.6,0.5,1,0.7c1.2,0.4,1.9,0.9,0.7,2.1c0,2.2-1.3,4-2.1,6c-0.6,1.8-1.3,3.5-2.3,5.2
				c-0.8-0.2-1.6-0.7-2.2-1.3c-0.4-0.5-0.9-0.5-1.4-0.8c-2.6-1.3-2.7-1.3-1-3.6C25.7,54.9,28.1,52.2,30.9,49.7z"/>
			<path d="M42.7,33.8c-1.1,0-1.9-0.9-1.9-2c0-0.1,0-0.2,0-0.3c0.9-3.6,3.1-6.8,3.8-10.5c0.2-1,1-1.1,1.9-0.5
				c1.3,0.8,2.3,2.1,4.1,1.9c0.6-0.1,1,1.2,0.5,1.7c-2.4,2.9-4.3,6.1-7.1,8.8C43.7,33.2,43.4,33.9,42.7,33.8z"/>
			<path d="M42.6,49.5c2.5,1.7,3.8,3.8,5.3,5.7c0.5,0.8,1.1,1.5,1.7,2.1c0.8,0.5,0.8,1.4,1.4,2c0.8,0.8,0.5,1.9-0.6,1.9
				c-1.5,0.1-2.9,0.7-3.8,1.8c-0.3,0.5-0.9,0.6-1.4,0.3c-0.3-0.2-0.4-0.5-0.4-0.8c-0.2-1.1-0.7-2-1-3c-0.6-2.5-2.4-4.6-2.6-7.2
				c-1.2-1,0-1.2,0.6-1.6C42,50.3,42.3,49.9,42.6,49.5z"/>
			<path d="M13.8,45v-6.6c1.4-0.3,2.4,0.7,3.7,0.6c1.1-0.1,2.4-0.5,3.5,0.5c1.6-0.1,3.3,0.1,4.9,0.6c1.3,0.3,1.6,0.6,1.6,1.8
				s-0.3,1.6-1.7,1.6c-1,0.1-1.8,0.8-2.9,0.6c-1.1-0.1-2.2,0.1-3.2,0.5c-1,0.2-2.1,0.2-3.1,0C15.6,44.5,15,45.8,13.8,45z"/>
			<path d="M59.3,38.4c0.6,0,1.2,0.4,1.2,1.1c0,0.2,0,0.4-0.1,0.6c-0.5,1.1-0.6,2.3-0.1,3.5c0.2,0.5,0.4,0.7,0,1.2s-1,0.8-1.5,0.5
				c-1.4-0.9-3-0.2-4.3-0.6c-2.1-0.6-4.3-0.3-6.4-1.1c-1-0.3-1.5-1.2-1.3-2.2c0.2-0.7,0.7-1.2,1.4-1.3c1-0.4,2.1-0.6,3.2-0.5
				c1.3,0.2,2.4-0.8,3.8-0.7c1.1,0.1,2.4,0.5,3.5-0.5C58.8,38.3,59.1,38.4,59.3,38.4z"/>
		</g>
	</g>
	<g id="Textes">
		<path d="M92.6,5h8.7v1.8h-6.6v5.4h6.1v1.7h-6.1v7.3h-2.1V5z"/>
		<path d="M118.2,13c0,5.6-3.4,8.5-7.5,8.5s-7.3-3.3-7.3-8.2c0-5.1,3.2-8.5,7.5-8.5S118.2,8.1,118.2,13z M105.6,13.3
			c0,3.5,1.9,6.5,5.2,6.5s5.2-3.1,5.2-6.8c0-3.2-1.7-6.6-5.2-6.6S105.6,9.7,105.6,13.3L105.6,13.3z"/>
		<path d="M120.9,21.2V5h2.3l5.2,8.2c1.1,1.7,2.1,3.4,2.9,5.2h0.1c-0.2-2.2-0.2-4.1-0.2-6.6V5h2v16.2h-2.1l-5.1-8.2
			c-1.1-1.7-2.1-3.5-3-5.4h-0.1c0.1,2,0.2,4,0.2,6.7v6.9L120.9,21.2z"/>
		<path d="M136.7,5.2c1.5-0.2,3-0.3,4.4-0.3c3,0,5.1,0.7,6.6,2c1.6,1.5,2.4,3.6,2.3,5.8c0.1,2.3-0.7,4.6-2.3,6.3
			c-1.5,1.5-4,2.3-7.1,2.3c-1.3,0-2.5-0.1-3.8-0.2L136.7,5.2z M138.8,19.5c0.7,0.1,1.4,0.1,2.1,0.1c4.5,0,6.9-2.5,6.9-6.9
			c0-3.8-2.1-6.2-6.6-6.2c-0.8,0-1.6,0.1-2.4,0.2V19.5z"/>
		<path d="M154.9,16.1l-1.7,5.1h-2.2L156.6,5h2.5l5.5,16.2h-2.2l-1.7-5.1L154.9,16.1z M160.2,14.5l-1.6-4.7c-0.4-1.1-0.6-2-0.8-2.9
			h-0.1c-0.2,1-0.5,1.9-0.8,2.9l-1.6,4.7L160.2,14.5z"/>
		<path d="M168.2,6.8h-4.9V5h12v1.8h-4.9v14.4h-2.1L168.2,6.8z"/>
		<path d="M179.2,5v16.2h-2.1V5H179.2z"/>
		<path d="M196.6,13c0,5.6-3.4,8.5-7.5,8.5s-7.3-3.3-7.3-8.2c0-5.1,3.2-8.5,7.5-8.5S196.6,8.1,196.6,13z M184.1,13.3
			c0,3.5,1.9,6.5,5.2,6.5s5.2-3,5.2-6.7c0-3.2-1.7-6.6-5.2-6.6S184.1,9.7,184.1,13.3L184.1,13.3z"/>
		<path d="M199.4,21.2V5h2.3l5.2,8.2c1.1,1.7,2.1,3.4,2.9,5.2l0,0c-0.2-2.2-0.2-4.1-0.2-6.6V5h2v16.2h-2.1l-5.1-8.2
			c-1.1-1.7-2.1-3.5-3-5.4h-0.1c0.1,2,0.2,4,0.2,6.7v6.9L199.4,21.2z"/>
		<path d="M96,33.8h2v10.8c0,4.3-2.1,5.6-4.9,5.6c-0.8,0-1.5-0.1-2.2-0.4l0.3-1.7c0.6,0.2,1.2,0.3,1.8,0.3c1.9,0,3-0.8,3-4V33.8z"/>
		<path d="M100.7,48.8c0-0.8,0.5-1.5,1.3-1.5c0,0,0.1,0,0.1,0c0.8,0,1.5,0.6,1.6,1.4s-0.6,1.5-1.4,1.6S100.7,49.7,100.7,48.8
			C100.7,48.8,100.7,48.8,100.7,48.8z"/>
		<path d="M108.8,44.9l-1.7,5.1H105l5.5-16.2h2.5l5.5,16.2h-2.2l-1.7-5.1L108.8,44.9z M114.1,43.3l-1.6-4.7c-0.4-1-0.6-2-0.8-3l0,0
			c-0.2,1-0.5,1.9-0.8,2.9l-1.6,4.7L114.1,43.3z"/>
		<path d="M120.9,34c1.3-0.2,2.7-0.4,4-0.3c2.2,0,3.7,0.4,4.7,1.3c0.8,0.8,1.3,1.9,1.3,3.1c0,1.9-1.2,3.6-3,4.1v0.1
			c1.2,0.4,2,1.6,2.4,3.3c0.3,1.5,0.7,3,1.2,4.4h-2.2c-0.5-1.2-0.8-2.5-1.1-3.9c-0.5-2.2-1.3-3.1-3.2-3.2h-2v7h-2.1L120.9,34z
			 M123,41.4h2.1c2.2,0,3.7-1.2,3.7-3.1c0-2.1-1.5-3-3.7-3c-0.7,0-1.4,0-2.1,0.2V41.4z"/>
		<path d="M147.4,42.9c-0.1-2.3-0.3-5-0.2-7h-0.1c-0.6,1.9-1.2,3.9-2,6.1l-2.9,7.8h-1.6l-2.7-7.7c-0.8-2.3-1.4-4.4-1.9-6.3l0,0
			c-0.1,2-0.2,4.7-0.3,7.2l-0.4,6.9h-2l1.1-16.2h2.7l2.8,7.8c0.7,2,1.2,3.8,1.6,5.5h0.1c0.4-1.6,1-3.4,1.7-5.5l2.9-7.8h2.7l1,16.2
			h-2L147.4,42.9z"/>
		<path d="M155.5,44.9l-1.7,5.1h-2.2l5.5-16.2h2.5l5.5,16.2h-2.2l-1.7-5.1L155.5,44.9z M160.8,43.3l-1.6-4.7c-0.4-1-0.6-2-0.8-3l0,0
			c-0.2,1-0.5,1.9-0.8,2.9l-1.6,4.7L160.8,43.3z"/>
		<path d="M167.6,50V33.8h2.3L175,42c1.1,1.7,2.1,3.4,2.9,5.2h0.1c-0.2-2.2-0.2-4.1-0.2-6.7v-6.8h2V50h-2.1l-5.1-8.2
			c-1.1-1.7-2.1-3.5-3-5.4h-0.1c0.1,2,0.2,4,0.2,6.7V50H167.6z"/>
		<path d="M183.3,34c1.5-0.2,3-0.3,4.4-0.3c3,0,5.1,0.7,6.6,2c1.6,1.5,2.4,3.6,2.3,5.8c0.1,2.3-0.7,4.6-2.3,6.3
			c-1.5,1.5-4,2.3-7.1,2.3c-1.3,0-2.5-0.1-3.8-0.2L183.3,34z M185.4,48.3c0.7,0.1,1.4,0.1,2.1,0.1c4.5,0,6.9-2.5,6.9-6.9
			c0-3.8-2.1-6.2-6.6-6.2c-0.8,0-1.6,0.1-2.4,0.2V48.3z"/>
		<path d="M92.6,62.8c1.3-0.2,2.5-0.3,3.8-0.3c1.6-0.1,3.1,0.3,4.4,1.2c0.9,0.7,1.4,1.7,1.3,2.9c-0.1,1.6-1.2,3.1-2.7,3.6l0,0
			c1.9,0.4,3.3,2.1,3.3,4.1c0,1.2-0.5,2.4-1.4,3.2c-1.1,1-3,1.5-5.6,1.5c-1.1,0-2.2-0.1-3.2-0.2L92.6,62.8z M94.7,69.5h1.9
			c2.2,0,3.5-1.2,3.5-2.7c0-1.9-1.4-2.6-3.6-2.6c-0.6,0-1.2,0-1.8,0.1V69.5z M94.7,77.2c0.6,0.1,1.2,0.1,1.8,0.1
			c2.2,0,4.2-0.8,4.2-3.1s-1.9-3.1-4.2-3.1h-1.7L94.7,77.2z"/>
		<path d="M119.5,70.6c0,5.6-3.4,8.5-7.5,8.5s-7.3-3.3-7.3-8.2c0-5.1,3.2-8.5,7.5-8.5S119.5,65.8,119.5,70.6z M106.9,70.8
			c0,3.4,1.9,6.6,5.2,6.6s5.2-3.1,5.2-6.7c0-3.2-1.7-6.6-5.2-6.6S106.9,67.3,106.9,70.8z"/>
		<path d="M135.8,71.7c-0.1-2.2-0.3-5-0.2-7h-0.1c-0.6,1.9-1.2,3.9-2,6.1l-2.9,7.8H129l-2.6-7.7c-0.8-2.3-1.4-4.4-1.9-6.3h-0.1
			c0,2-0.2,4.7-0.3,7.2l-0.4,6.9h-2l1.1-16.2h2.7l2.8,7.8c0.7,2,1.2,3.8,1.6,5.4h0.1c0.4-1.6,1-3.4,1.7-5.4l2.9-7.8h2.7l1,16.2h-2
			L135.8,71.7z"/>
		<path d="M141.5,62.8c1.3-0.2,2.5-0.3,3.8-0.3c1.6-0.1,3.1,0.3,4.4,1.2c0.9,0.7,1.4,1.7,1.3,2.9c-0.1,1.6-1.2,3.1-2.7,3.6l0,0
			c1.9,0.4,3.3,2.1,3.3,4.1c0,1.2-0.5,2.4-1.4,3.2c-1.1,1-2.9,1.5-5.6,1.5c-1.1,0-2.2-0.1-3.2-0.2L141.5,62.8z M143.6,69.5h1.9
			c2.2,0,3.5-1.2,3.5-2.7c0-1.9-1.4-2.6-3.6-2.6c-0.6,0-1.2,0-1.9,0.1L143.6,69.5z M143.6,77.2c0.6,0.1,1.2,0.1,1.8,0.1
			c2.2,0,4.1-0.8,4.1-3.1s-1.9-3.1-4.2-3.1h-1.7V77.2z"/>
		<path d="M157.1,73.7l-1.7,5.1h-2.2l5.5-16.2h2.5l5.5,16.2h-2.2l-1.7-5.1H157.1z M162.4,72.1l-1.6-4.7c-0.4-1.1-0.6-2-0.8-3h-0.1
			c-0.2,1-0.5,1.9-0.8,2.9l-1.6,4.7L162.4,72.1z"/>
		<path d="M169.2,62.8c1.3-0.2,2.7-0.4,4-0.3c2.2,0,3.7,0.4,4.7,1.3c0.8,0.8,1.3,1.9,1.3,3.1c0,1.9-1.2,3.6-3,4.1v0.1
			c1.2,0.4,2,1.6,2.4,3.3c0.3,1.5,0.7,3,1.2,4.4h-2.2c-0.5-1.2-0.9-2.5-1.1-3.8c-0.5-2.2-1.3-3.1-3.2-3.2h-2v7h-2.1L169.2,62.8z
			 M171.3,70.2h2.1c2.2,0,3.6-1.2,3.6-3.1c0-2.1-1.5-3-3.7-3c-0.7,0-1.4,0-2.1,0.2L171.3,70.2z"/>
		<path d="M182.1,62.8c1.5-0.2,3-0.3,4.4-0.3c3,0,5.1,0.7,6.6,2c1.6,1.5,2.4,3.6,2.3,5.8c0.1,2.3-0.7,4.6-2.4,6.3
			c-1.5,1.5-4,2.3-7.1,2.3c-1.3,0-2.5-0.1-3.8-0.2L182.1,62.8z M184.2,77.2c0.7,0.1,1.4,0.1,2.1,0.1c4.5,0,6.9-2.5,6.9-6.9
			c0-3.8-2.1-6.2-6.6-6.2c-0.8,0-1.6,0.1-2.4,0.2V77.2z"/>
		<path d="M200.2,62.6v16.2h-2.1V62.6H200.2z"/>
		<path d="M212.2,71.2h-6.3v5.8h7v1.8h-9.1V62.6h8.7v1.8h-6.6v5.1h6.3V71.2z"/>
		<path d="M215.6,62.8c1.3-0.2,2.7-0.4,4-0.3c2.2,0,3.7,0.4,4.7,1.3c0.9,0.8,1.3,1.9,1.3,3.1c0,1.9-1.2,3.6-3,4.1v0.1
			c1.2,0.4,2,1.6,2.4,3.3c0.3,1.5,0.7,3,1.2,4.4H224c-0.5-1.2-0.8-2.5-1.1-3.8c-0.5-2.2-1.3-3.1-3.2-3.2h-2v7h-2.1L215.6,62.8z
			 M217.7,70.2h2.1c2.2,0,3.6-1.2,3.6-3.1c0-2.1-1.5-3-3.7-3c-0.7,0-1.4,0-2.1,0.2L217.7,70.2z"/>
	</g>
</g>
</svg>
