<?xml version="1.0" encoding="utf-8"?>
<!-- Generator: Adobe Illustrator 26.2.1, SVG Export Plug-In . SVG Version: 6.00 Build 0)  -->
<svg version="1.1" id="Layer_1" xmlns="http://www.w3.org/2000/svg" xmlns:xlink="http://www.w3.org/1999/xlink" x="0px" y="0px"
	width="1000px" height="500px" viewBox="0 0 357.1 58.6" style="enable-background:new 0 0 357.1 58.6;" xml:space="preserve">
<style type="text/css">
	.st0{fill:#662823;}
</style>
<path class="st0" d="M357.1,14.7l-19.6,22L357.1,58c-5.8,0-10.8,0.1-15.7-0.1c-0.8,0-1.7-1.1-2.4-1.9c-5.3-6.2-10.6-12.4-16.2-18.9
	c4.4-5.5,9.1-10.7,13.1-16.5c3.3-4.8,7.2-6.8,12.9-5.9C351.3,15,353.8,14.7,357.1,14.7z"/>
<path class="st0" d="M107.5,57.8V0.1h11.6c0,3.9,0.1,7.8,0,11.7c-0.1,2.4,0.7,3.3,3.2,3.2c3.2-0.2,6.3,0,9.5,0
	c12,0,18.5,5.2,20.6,17c1.4,8.2-0.4,15.9-6.7,21.7c-2.2,2-5.4,3.9-8.2,4C127.6,58.2,117.7,57.8,107.5,57.8z M119.1,48.7
	c3.7,0,6.9-0.2,10,0c7.2,0.7,11.5-5.9,11.6-12c0.2-7-4.5-12.6-10.9-12.9c-2.8-0.2-5.6-0.2-8.4,0.1c-1,0.3-1.8,1.1-2.2,2.1
	C119,33.4,119.1,40.8,119.1,48.7z"/>
<path class="st0" d="M243.6,32.3c0.5-5.4-1.9-8.1-7.3-8.1c-7.2,0-14.3,0-21.8,0v-8.9c0.8-0.2,1.7-0.3,2.6-0.3c7.4,0,14.8-0.1,22.2,0
	c9.7,0.1,15.4,4.4,16.1,13.5c0.7,9.7,0.2,19.5,0.2,29.6H241c-5.9,0-11.8,0.1-17.6,0c-7.4-0.2-12.2-5.7-12-13.1
	c0-6.7,5.4-12.2,12.1-12.2c0.2,0,0.3,0,0.5,0c6.4,0,12.7,0,19-0.1C243.2,32.6,243.4,32.4,243.6,32.3z M243.7,41
	c-5.4,0-10.4-0.1-15.4,0c-2.6,0.1-4.9,1.7-4.4,4.3c0.3,1.5,2.5,3.7,4,3.8c5.2,0.5,10.4,0.2,15.8,0.2L243.7,41z"/>
<path class="st0" d="M86.5,32.7c0.5-5.7-1.9-8.4-7.1-8.5c-7.3-0.1-14.5,0-22,0v-8.6c0.3-0.2,0.6-0.5,0.9-0.5
	c8.9,0,17.9-0.2,26.8,0.2c7.6,0.4,12.8,5.5,13.1,13c0.4,9.7,0.1,19.5,0.1,29.5c-0.7,0.2-1.3,0.3-2,0.3c-9.9,0-19.8,0.1-29.6,0
	c-6.6-0.1-11.6-4.6-12.3-10.7c-0.8-6.9,2.9-12.8,9.1-14.3c1.4-0.3,2.8-0.4,4.2-0.3C73.9,32.6,80.1,32.7,86.5,32.7z M86.6,41
	c-5.3,0-10.4-0.2-15.6,0.1c-2.4,0.1-4.3,1.5-4.4,4.2s2,4,4.3,4.1c5.1,0.2,10.3,0.1,15.6,0.1V41z"/>
<path class="st0" d="M0.5,0H15v3.7c0,10.5,0,20.9,0,31.4c0,9,4.5,13.5,13.6,13.6c6.5,0.1,12.9,0,19.7,0v9.9
	C37.1,58,25.9,58,14.9,56.7C6.2,55.6,0.4,48.3,0.2,39.5c-0.3-12.8,0-25.5,0-38.4C0.3,0.8,0.4,0.4,0.5,0z"/>
<path class="st0" d="M156.1,57.4v-8.6h18.7c10.6,0,14.7-4.1,14.7-14.6c0-11.3,0-22.5,0-34h15c0,2,0,3.8,0,5.6
	c0,10.1,0,20.3,0.1,30.4c0,12.5-5.2,19.6-17.6,21.1C176.8,58.3,166.6,57.4,156.1,57.4z"/>
<path class="st0" d="M302.7,15.2v9.6c-5.6,0-11-0.1-16.5,0c-6.5,0.3-11.6,5.8-11.4,12.3c-0.1,6.3,4.8,11.4,11.1,11.6
	c0.1,0,0.3,0,0.4,0c3.8,0,7.5,0,11.3,0h5.1v9.8c-9-0.5-18.1,0-26.6-1.9c-11.2-2.5-16.6-16.1-12.2-28.3c2.7-7.4,8-12.3,15.9-13
	C287.2,14.7,294.8,15.2,302.7,15.2z"/>
<path class="st0" d="M310.5,0h11.4v57.8h-11.4V0z"/>
</svg>
