<svg id="Logos" xmlns="http://www.w3.org/2000/svg" width="823" height="337" viewBox="0 0 823.72 337.1"><defs><style>.cls-1{fill:#011e41;}</style></defs><path class="cls-1" d="M349.63,103.72c9.16,0,16,2.53,20.53,7.48a25.7,25.7,0,0,1,6.95,18.21,24.82,24.82,0,0,1-7.16,18.1c-4.74,4.74-11.9,7.16-21.48,7.16h-12v26.85H320.89v-77.8ZM349,140.57c8,0,12.21-5.06,12.21-11.37s-4.31-11.06-11.37-11.06H336.47v22.43Z"/><path class="cls-1" d="M428.1,181.52,411.67,153.2h-9.26v28.32H386.83v-77.8h29.79c8.63,0,15.27,2.42,19.79,7.16a24.32,24.32,0,0,1,6.85,17.47c0,10.11-5.27,19.06-15.8,22.85l18.85,30.32Zm-25.69-63.38V139.2h12.74c8.1,0,12.1-4.63,12.1-10.64s-4-10.42-10.73-10.42Z"/><path class="cls-1" d="M520.21,181.52v-77.8h10.32l30.53,44.11,30.21-44.11H601.8v77.8H586.22V137.41l-22.64,32.53h-5.37l-22.63-32.53v44.11Z"/><path class="cls-1" d="M616.38,103.72h15.69v77.8H616.38Z"/><path class="cls-1" d="M753.65,181.52,737.23,153.2H728v28.32H712.38v-77.8h29.79c8.64,0,15.27,2.42,19.79,7.16a24.32,24.32,0,0,1,6.85,17.47c0,10.11-5.27,19.06-15.79,22.85l18.84,30.32ZM728,118.14V139.2H740.7c8.11,0,12.11-4.63,12.11-10.64s-4-10.42-10.74-10.42Z"/><path class="cls-1" d="M527.9,285.24v-77.8h15.58V238.5h35V207.44h15.58v77.8H578.53V253.55h-35v31.69Z"/><path class="cls-1" d="M343.11,222.5H320.89V207.44h60.22V222.5H358.9v62.74H343.11Z"/><path class="cls-1" d="M389.21,285.24v-77.8H442V222H404.9v16.74h33.21v14.53H404.9v17.47H442v14.53Z"/><path class="cls-1" d="M646.68,181.52v-77.8h52.74v14.53H662.36V135h33.21v14.52H662.36V167h37.06v14.53Z"/><path class="cls-1" d="M454.51,181.52v-77.8h52.74v14.53H470.19V135H503.4v14.52H470.19V167h37.06v14.53Z"/><path class="cls-1" d="M269,129.65a77.79,77.79,0,0,1-77.79,77.79H155.58V155.58h35.66a25.93,25.93,0,0,0,0-51.86H51.86V51.86H191.24A77.79,77.79,0,0,1,269,129.65Z"/><path class="cls-1" d="M51.86,252.82V155.58h51.86V285.24H84.27A32.41,32.41,0,0,1,51.86,252.82Z"/><path class="cls-1" d="M508.79,263.05a27.16,27.16,0,0,1-20,8.4,24,24,0,0,1-17.68-7.05c-4.74-4.74-7.05-10.63-7.05-17.79,0-7.37,2.42-13.48,7.16-18.21a23.7,23.7,0,0,1,17.68-7.27,26.85,26.85,0,0,1,19.71,8.48l10.48-10.47c-7.17-8-18.56-13.06-31-13.06a39.29,39.29,0,0,0-28.53,11.47q-11.68,11.37-11.69,29.06c0,11.68,3.79,21.26,11.48,28.74s17.26,11,28.53,11a43.35,43.35,0,0,0,31.34-13Z"/></svg>