<?xml version="1.0" encoding="utf-8"?>
<!-- Generator: Adobe Illustrator 26.2.1, SVG Export Plug-In . SVG Version: 6.00 Build 0)  -->
<svg version="1.1" id="Layer_1" xmlns="http://www.w3.org/2000/svg" xmlns:xlink="http://www.w3.org/1999/xlink" x="0px" y="0px"
	width="1000px" height="500px" viewBox="0 0 226.6 46.8" style="enable-background:new 0 0 226.6 46.8;" xml:space="preserve">
<style type="text/css">
	.st0{fill:#E31818;}
</style>
<path class="st0" d="M16.1,2.4c0,0-0.1,0.7,3.9,0.6s9.4,0.2,10,2.4c0.4,1.8-1.1,4.5-5.7,8.4s-7.1,5.3-6.5,6.3s5.9-1.7,9.2-4.1
	s9.8-8.4,8.1-12.3S24.7-0.1,22.7,0.1C20.9,0.2,15.4,1,16.1,2.4z"/>
<path class="st0" d="M46.4,18.7c-1.2,0.2-4.9-0.1-6.3,0s-4.5,0.2-4.9,1.5s0.4,2.8,1.5,4.1s6.2,7.8,6.9,8.5c1.3,1.4,1.6,3.5,0.9,5.2
	c-0.6,1.5-2.2,3-6.2,3.4c-4.4,0.2-8.9,0-13.2-0.6c-1.2-0.3-2.4-0.8-2-1.7s2.8-0.6,4.7-0.6c2.3,0,7.8-0.2,8.8-0.4s3.3-0.8,2.5-3
	s-7.4-9-8.7-11.4s-1.9-5.5,2.1-7.3s12.2-0.7,14-0.1C48.2,17.1,48.7,18.2,46.4,18.7z"/>
<path class="st0" d="M5.7,35.1c0,0-4.3,7.3-5,8.8c-0.4,0.8-0.9,2.2-0.6,2.5s0.6,1.7,11.4-3c4.7-2,8.9-5.1,12.3-9
	c4.5-5.5,5.3-11.3-5.1-12.2c-3.8-0.2-7.6,0.1-11.3,1c0,0-1.8,0.6-1.8,1.2s0.8,1,2.5,0.9c2.8-0.1,5.6-0.1,8.4,0.1
	c1.4,0.2,5.9,0.6,5,4s-4.8,7.3-8.2,9.3c-0.9,0.6-1.9,1.1-2.9,1.6c-1.1,0.5-3.9,1.6-3.1-0.9s5-9.4,5-9.4s1.2-2.2-0.2-2.2
	C11.1,27.8,9,29.9,5.7,35.1z"/>
<path class="st0" d="M71,22.5v1.9c0,1-0.9,1.8-1.9,1.8c0,0,0,0-0.1,0h-7c0,0-0.7,0-0.8,0.5c-0.1,0.3,0,0.6,0.7,1S69,33,69,33
	s1.1,0.7,1,3.2c-0.1,2.2-1.8,4.8-4.6,4.8h-9.2v-2.6c0,0-0.1-1.1,1.4-1.1h7.6c0.4-0.1,0.7-0.4,0.8-0.8c0.1-0.6-0.3-1-0.8-1.3
	S59,30.8,59,30.8c-1.3-1-1.9-2.7-1.7-4.3c-0.1-2.1,1.5-3.8,3.6-4H71z"/>
<polygon class="st0" points="111.8,22.6 115.8,22.6 112.6,41 108.5,41 "/>
<path class="st0" d="M121.8,41h-4.1l2.4-13.4h4L122.2,38h4.3c1,0,2-0.3,2.8-0.9c1.1-1,2.1-3.1,2.6-6.6c0,0,1.1-4.9-2.7-4.9h-8.1
	c0,0-2,0-2-1.3v-1.9h11.3c1.8,0,3.5,0.8,4.7,2.2c2.1,2.3,1.4,6.8,0.4,10.1c-1.3,4.6-3,6.3-10.3,6.3L121.8,41z"/>
<polygon class="st0" points="96.4,22.6 100.4,22.6 97.7,38 106.4,38 106.1,41 93.1,41 "/>
<path class="st0" d="M141.6,41.4h-1.9V22.3h1.4c0.7,0,0.9,0.7,1,1.1V38c0.9-1.5,4-7,4.5-7.7c0.4-0.9,1.2-1.5,2.2-1.5
	c1.2,0,1.7,1.7,1.7,1.8s1.1,5,1.4,6.7c0.1,0.4,0.1,0.7,0.2,1.1c6.2-13.8,6.7-14.8,6.9-15.2l0,0c0.2-0.4,0.5-0.7,1-0.8
	c0.2,0,0.3,0,0.5,0.1c0.3,0.1,0.5,0.3,0.6,0.5c0.1,0.3,0.1,0.7-0.1,1c-0.3,0.6-7,15.5-7.5,16.4c-0.3,0.6-0.8,0.9-1.4,1h-1.7
	l-1.9-9.7c0-0.1-0.1-0.3-0.2-0.3s-0.1,0.2-0.2,0.3l0,0c0,0.1-3.9,6.9-4.8,8.3S141.8,41.4,141.6,41.4z"/>
<path class="st0" d="M208.9,41.3c-0.4-0.1-0.8-0.3-1.1-0.6l-6.9-7.5h-0.2l-1.4,8.1H197l3.5-18.8h2.1l-1.3,7.9h0.1
	c0.4-0.3,0.8-0.6,1.2-1c0.8-0.8,7.8-6.3,8-6.5l0,0c0.2-0.2,0.6-0.3,0.9-0.3c0.4-0.1,0.8,0.1,1,0.5c0.1,0.2,0.1,0.6-0.6,1.2
	c-0.9,0.8-7.1,5.9-9.2,7.6l7.1,7.6c0.4,0.4,0.5,0.8,0.4,1.1C209.8,41.1,209.4,41.3,208.9,41.3z"/>
<path class="st0" d="M191.1,22.7h-7.6L180,41.2h2.2l1.3-7.9l3.8,0.1l3.6,6.8c0,0,0.4,0.7,0.9,0.8c0.3,0.1,1.8,0,1.1-1.3
	s-3.3-6.1-3.3-6.1c-0.2-0.5,0.4-0.5,0.4-0.5c1.8,0.1,5.2-1.6,5.6-6C195.9,22.4,191.1,22.7,191.1,22.7z M193.5,27.3
	c-0.4,3-2.3,4-3.8,4h-5.9l1.1-6.7h5.2C190.2,24.6,193.9,24.4,193.5,27.3z"/>
<path class="st0" d="M213,41.5v-2.4h7.6c0.7,0.1,1.4-0.3,1.7-1c0.4-0.7,0.3-1.6-0.3-2.2c-0.3-0.3-3.8-3.7-5.4-5.3
	c-2.3-2.3-2-4.4-1.4-5.8c0.8-1.5,2.5-2.5,4.2-2.4h7.2v2.4h-7.2c0,0-1.6,0-2,1c-0.3,0.7-0.5,1.7,0.9,3.1c1.7,1.7,5.4,5.3,5.4,5.3l0,0
	c1.4,1.4,1.6,3.5,0.6,5.2c-0.8,1.4-2.2,2.2-3.8,2.2L213,41.5z"/>
<path class="st0" d="M168.4,42.2c-2.3,0-4.5-1-6.1-2.7c-1.4-1.5-2.1-3.5-1.9-5.6c0.2-2.7,1.7-11.5,10.7-11.5c0.2,0,4.3,0.1,6.5,2.9
	c1.3,1.9,1.7,4.2,1.1,6.4C176.6,41.4,170.3,42.2,168.4,42.2z M171.1,24.9c-6.5,0-8,5.8-8.2,9.3c-0.1,1.4,0.3,2.7,1.3,3.8
	c1.1,1.2,2.7,1.9,4.3,1.9c1.8,0,6.3-0.8,7.9-8.5c0.5-1.5,0.2-3.1-0.6-4.4C174.2,25,171.1,24.9,171.1,24.9L171.1,24.9z"/>
<path class="st0" d="M83.9,22.5c-3.2-0.1-9.2,0.8-10.9,9.1s4.2,10.5,7.4,10.5s9.1-0.9,11.1-9.9C93.6,23,83.9,22.5,83.9,22.5z
	 M87.6,31.7c-1.2,6-4.4,7.1-6.6,7.1s-5.3-1.4-4.2-6.9s4.4-6.2,6.5-6.1C83.3,25.8,88.8,25.7,87.6,31.7z"/>
</svg>
