<?xml version="1.0" encoding="utf-8"?>
<!-- Generator: Adobe Illustrator 26.2.1, SVG Export Plug-In . SVG Version: 6.00 Build 0)  -->
<svg version="1.1" id="Layer_1" xmlns="http://www.w3.org/2000/svg" xmlns:xlink="http://www.w3.org/1999/xlink" x="0px" y="0px"
	width="1000px" height="500px" viewBox="0 0 225.6 59.7" style="enable-background:new 0 0 225.6 59.7;" xml:space="preserve">
<style type="text/css">
	.st0{fill-rule:evenodd;clip-rule:evenodd;fill:#004D9E;}
	.st1{clip-path:url(#SVGID_00000124865836580137367360000002021178942251857560_);}
	.st2{clip-path:url(#SVGID_00000148641148427935310620000003119327107648577204_);}
	.st3{fill:#004D9E;}
</style>
<path class="st0" d="M19.1,12.4c-0.7-3.3,3-2.2,3.3-4.5C18.1,2.3,6.4,5,6.2,11.5c-0.1,5.9,9.7,7.3,15.3,8.7s13.2,3.7,16.5,7.2
	c2.5,2.6,3.9,6,3.9,9.6c-0.2,17.2-35.6,18-40.9,4.8C-1.2,36.1,2.5,30.1,7.4,29c2.3-0.5,6.7-0.1,5.7,2.7c-0.8,2.2-3.6,1.1-5.4,2.4
	c-1.1,0.8-1.7,2-1.8,3.3c-0.5,10.6,26.7,11,28.8,1.8c0.5-2.8-0.2-5.7-2.1-7.8c-3.5-4.1-14-5.9-20.7-8.1c-5-1.7-10.8-3.5-11.7-8.8
	C-1.6,4.6,8.3-0.9,17.6,0.1C22.2,0.6,30,3.5,28.2,10c-1.1,3-4.5,4.5-7.4,3.3C20.2,13.1,19.6,12.8,19.1,12.4"/>
<g>
	<defs>
		<rect id="SVGID_1_" x="174.9" y="6" width="50.7" height="41.8"/>
	</defs>
	<clipPath id="SVGID_00000056407075849165608090000004822043360004347827_">
		<use xlink:href="#SVGID_1_"  style="overflow:visible;"/>
	</clipPath>
	<g style="clip-path:url(#SVGID_00000056407075849165608090000004822043360004347827_);">
		<path class="st0" d="M193.8,30.8c2.6-0.8,3-4.8,5.1-6.9c1.6-1.6,5.7-4,8.4-0.9c-1.4,4.3-7.7,3.7-6.9,9.6
			c0.7,4.9,11.1,9.5,17.1,10.2c3,0.3,5.9-0.7,8.1,0.6c0.3,4.4-4.1,4.5-8.4,4.2c-3.3-0.3-6.5-1.3-9.3-3c-2.9-1.6-5.3-3.7-7.8-4.5
			c-1.4,3,1.7,3.9,1.5,6.6c-4.1,3-6.9-3-8.7-6c-4.3-7.2-7.8-14.2-12.3-21.6c-0.8-1.3-2.1-3-3.3-5.1c-1.3-2.2-4.1-7.6,0-7.8
			c2.6-0.2,4.2,4.3,5.7,6.9C186.2,18.5,190.6,26.1,193.8,30.8"/>
	</g>
</g>
<path class="st0" d="M162.2,46.7c-4.1,3.5-6.6-3.9-8.1-6.6c-5.4-9.2-10.3-17.6-15.6-27c-1-1.8-2.6-3.8-1.8-6c2.6-2,4.2,0.7,5.7,3.3
	c6.1,10.5,11.4,20.4,17.4,31c1,1.8,2.8,3.2,2.4,5.4"/>
<path class="st0" d="M57,37.7c1.3-2.7-1-6.1-2.4-8.4s-4.5-4.8-2.1-7.8c2.8-0.8,3.5,1.6,4.5,3c2.1,3,4,5.9,6,9
	c0.9,1.4,1.7,3.3,3.6,3.6c1.9-2.1,0-5.5-1.2-7.8s-3.4-5-1.8-7.8c3.9-1,5.8,4.2,7.2,8.1c2.1,5.7,3.2,13.5,0.6,18
	c-5.2,0.6-4.9-4.3-8.4-5.4c-1.5,1-0.5,4.3-1.8,5.4c-2.2,0.7-4.4-0.9-5.7-2.1c-2.4-2.2-5.6-6.4-8.4-10.2c-1.2-1.6-2.7-3.7-3.9-5.4
	s-2.9-4.8-2.7-6.3c0.2-1.5,1.5-2.5,3-2.4c0.3,0,0.6,0.1,0.9,0.3c0.8,0.3,2.2,2.9,3,4.2c1,1.6,1.9,3.3,2.7,4.5
	C52.3,33.6,53.8,36.8,57,37.7"/>
<path class="st0" d="M79.6,28.7c-1.1,6.1,5.8,14.3,10.2,13.8c5.3-0.5,1.1-7-0.6-9.9s-3.3-7.8-6.9-6.9C80.8,26,79.7,27.2,79.6,28.7
	 M90.1,21.4c0.8,0.8,1.1,1.9,0.9,3c3.7,5.8,6.4,11.5,9.9,17.7c0.6,1,2.3,2.5,1.8,4.5c-0.6,0.7-1.5,1.1-2.4,1.2
	c-2.1,0.1-2.9-2.2-4.5-2.4c-2-0.2-3.3,1.8-4.8,2.1c-7.7,1.4-18.8-9.3-16.8-20.7c0.5-2.8,3.7-5.5,6.9-5.7c1.5-0.1,3,0.9,4.8,0.9
	C87.5,22,87.9,21.1,90.1,21.4"/>
<g>
	<defs>
		<rect id="SVGID_00000179609801453941041420000017790386524622745269_" x="99.2" y="21" width="30.3" height="38.6"/>
	</defs>
	<clipPath id="SVGID_00000158010551587964476840000015066089161849160834_">
		<use xlink:href="#SVGID_00000179609801453941041420000017790386524622745269_"  style="overflow:visible;"/>
	</clipPath>
	<g style="clip-path:url(#SVGID_00000158010551587964476840000015066089161849160834_);">
		<path class="st0" d="M114.1,32.9c-1-1.7-3.1-6.6-4.8-7.2c-3.4-1.3-5.3,2.4-4.8,6c0.7,4.9,7.5,13.5,12.3,9.9
			C117.8,37.5,115.4,35.1,114.1,32.9 M114.4,21.4c1.9,6,5.3,10.5,8.4,17.1c1,2,2,4.6,3.3,6.9c2.1,3.8,5.3,8.7,1.2,12.3
			c-1.9,1.7-12.8,3.5-11.4-0.9c1-3,7.2,0.4,8.4-3c-0.2-2.7-1-7.6-3.6-8.1c-1.4-0.3-2.8,1.5-4.5,1.8c-9.9,1.8-16.9-11.7-16.8-18
			c0-2.3,0.8-5.2,1.8-6.3C104.1,19.9,109.5,22,114.4,21.4"/>
	</g>
</g>
<path class="st0" d="M134.6,26.5c-7.5-4-7.7,11.7,1.2,8.4C138.2,32.6,136.6,27.6,134.6,26.5 M135.8,39.2c0.8,3.8,4.7,4,7.8,3
	s2.5-4.1,5.1-3.9c4.5,0.3,1,6.2,0.3,6.9c-2.5,2.5-6.7,2.8-9.6,2.4c-7.4-1.1-14.2-9-15.6-14.7c-1.5-6.2,2.6-11.4,7.8-11.7
	c7.7-0.5,12.8,8,9.6,14.1C140.1,37.3,138.1,37.5,135.8,39.2"/>
<path class="st0" d="M168.5,39.2c1.5,1.5,3.9,3.6,5.7,3.9c4.9,0.9,7.8-1.9,6.9-6.9c-0.9-4.8-10.2-13.7-15.3-8.7
	c0.1,1.1,1,1.6,1.2,2.7C162.9,32.5,166.5,37.2,168.5,39.2 M168.8,21.4c1.9-0.1,3.8,0.1,5.7,0.6c4.4,1.6,12,9.5,11.7,17.4
	c-0.4,10.3-14.1,9.6-20.4,3.9c-2-1.8-6.3-7.2-6.9-11.7c-0.4-3.2,0.1-7.2,2.7-7.8c0.4-0.1,1.2,0.4,2.1,0
	C166.1,22.8,165.9,21.8,168.8,21.4"/>
<path class="st3" d="M206.7,31.8h0.4c0.4,0,0.8-0.1,0.8-0.5s-0.2-0.5-0.7-0.5c-0.1,0-0.3,0-0.4,0V31.8z M206.7,33.7H206v-3.2
	c0.4-0.1,0.8-0.1,1.2-0.1c0.4,0,0.8,0.1,1.1,0.3c0.2,0.2,0.3,0.4,0.3,0.7c0,0.4-0.3,0.7-0.7,0.7l0,0c0.3,0.1,0.5,0.4,0.6,0.8
	c0,0.3,0.1,0.5,0.2,0.8H208c-0.1-0.2-0.2-0.5-0.3-0.8c-0.1-0.4-0.2-0.5-0.7-0.5h-0.4V33.7z M207.2,29.4c-1.4,0-2.6,1.2-2.6,2.6
	c0,1.4,1.2,2.6,2.6,2.6c1.4,0,2.5-1.1,2.5-2.5c0,0,0-0.1,0-0.1C209.7,30.6,208.6,29.4,207.2,29.4C207.2,29.4,207.2,29.4,207.2,29.4
	L207.2,29.4z M207.2,28.7c1.8,0,3.2,1.5,3.2,3.3c0,1.8-1.5,3.2-3.3,3.2c-1.8,0-3.2-1.5-3.2-3.3C203.9,30.2,205.3,28.7,207.2,28.7
	C207.2,28.7,207.2,28.7,207.2,28.7"/>
</svg>
