<?xml version="1.0" encoding="UTF-8"?>
<!-- Generator: Adobe Illustrator 23.0.4, SVG Export Plug-In . SVG Version: 6.00 Build 0)  -->
<svg version="1.1" id="Layer_1" xmlns="http://www.w3.org/2000/svg" xmlns:xlink="http://www.w3.org/1999/xlink" x="0px" y="0px" width="1000px" height="500px" viewBox="0 0 526.3 85.8" enable-background="new 0 0 526.3 85.8" xml:space="preserve">
<g>
	<path fill="#201161" d="M68.3,42.9l33.9,42.9H78l-26.9-34l7.3-8.9L51.1,34L78,0h24.2L68.3,42.9z M171.4,33.6h-43.2   c-3.9,0-7-3.1-7-7c0-3.9,3.1-7,7-7h62.9V0h-63.3c-14.4,0-26,11.7-26,26s11.7,26,26,26h43c3.9,0,7.1,3.2,7.1,7.1s-3.2,7.1-7.1,7.1   h-68l16.1,19.6h52.5c14.4,0,26.1-11.7,26.1-26.1v0C197.5,45.3,185.8,33.6,171.4,33.6z M287,0h18.6v19.6v13.5v19.6H287h-58.3   c0,7.5,6.1,13.5,13.5,13.5h63.4v19.5h-62.1c-19.6,0-35.5-15.9-35.5-35.5V35.5C208.1,15.9,224,0,243.6,0H287z M287,19.6h-44.8   c-7.4,0-13.5,6-13.5,13.5H287V19.6z M392.6,0h-67.8v85.8h19.7V19.6h48.1c1.4,0,2.6,0.5,3.6,1.5c1,1,1.5,2.2,1.5,3.6v61h19.7V24.9   c0-6.9-2.4-12.8-7.3-17.6C405.4,2.4,399.5,0,392.6,0z M500.2,33.6H457c-3.9,0-7-3.1-7-7c0-3.9,3.1-7,7-7h60.9V0h-61.3   c-14.4,0-26,11.7-26,26s11.7,26,26,26h43c3.9,0,7.1,3.2,7.1,7.1s-3.2,7.1-7.1,7.1h-65.9v19.6h66.6c14.4,0,26.1-11.7,26.1-26.1v0   C526.3,45.3,514.6,33.6,500.2,33.6z"/>
	<polygon fill="#EA6752" points="51.1,34 24.2,0 0,0 33.9,42.9 0,85.8 24.2,85.8 51.1,51.8 58.4,42.9  "/>
</g>
</svg>